999
dxfrw 0.6.3
  0
SECTION
  2
HEADER
  9
$ACADVER
  1
AC1021
  9
$DWGCODEPAGE
  3
ANSI_1252
  9
$INSBASE
 10
0
 20
0
 30
0
  9
$EXTMIN
 10
0
 20
0
 30
0
  9
$EXTMAX
 10
169.8
 20
53.5
 30
0
  9
$LIMMIN
 10
0
 20
0
  9
$LIMMAX
 10
420
 20
297
  9
$ORTHOMODE
 70
    0
  9
$REGENMODE
 70
    1
  9
$FILLMODE
 70
    1
  9
$QTEXTMODE
 70
    0
  9
$MIRRTEXT
 70
    0
  9
$LTSCALE
 40
1
  9
$ATTMODE
 70
    0
  9
$TEXTSIZE
 40
2.5
  9
$TRACEWID
 40
15.68
  9
$TEXTSTYLE
  7
STANDARD
  9
$CLAYER
  8
Cuts
  9
$CELTYPE
  6
BYLAYER
  9
$CECOLOR
 62
  256
  9
$CELTSCALE
 40
1
  9
$DISPSILH
 70
    0
  9
$DIMSCALE
 40
2
  9
$DIMASZ
 40
2
  9
$DIMEXO
 40
0.625
  9
$DIMDLI
 40
3.75
  9
$DIMRND
 40
0
  9
$DIMDLE
 40
0
  9
$DIMEXE
 40
0.05
  9
$DIMTP
 40
0
  9
$DIMTM
 40
0
  9
$DIMTXT
 40
2.5
  9
$DIMCEN
 40
2.5
  9
$DIMTSZ
 40
0
  9
$DIMTOL
 70
    0
  9
$DIMLIM
 70
    0
  9
$DIMTIH
 70
    0
  9
$DIMTOH
 70
    0
  9
$DIMSE1
 70
    0
  9
$DIMSE2
 70
    0
  9
$DIMTAD
 70
    1
  9
$DIMZIN
 70
    8
  9
$DIMBLK
  1

  9
$DIMASO
 70
    1
  9
$DIMSHO
 70
    1
  9
$DIMPOST
  1

  9
$DIMAPOST
  1

  9
$DIMALT
 70
    0
  9
$DIMALTD
 70
    3
  9
$DIMALTF
 40
0.03937
  9
$DIMLFAC
 40
0.0393701
  9
$DIMTOFL
 70
    1
  9
$DIMTVP
 40
0
  9
$DIMTIX
 70
    0
  9
$DIMSOXD
 70
    0
  9
$DIMSAH
 70
    0
  9
$DIMBLK1
  1

  9
$DIMBLK2
  1

  9
$DIMSTYLE
  2
STANDARD
  9
$DIMCLRD
 70
    0
  9
$DIMCLRE
 70
    0
  9
$DIMCLRT
 70
    0
  9
$DIMTFAC
 40
1
  9
$DIMGAP
 40
0.025
  9
$DIMJUST
 70
    0
  9
$DIMSD1
 70
    0
  9
$DIMSD2
 70
    0
  9
$DIMTOLJ
 70
    0
  9
$DIMTZIN
 70
    8
  9
$DIMALTZ
 70
    0
  9
$DIMALTTZ
 70
    0
  9
$DIMUPT
 70
    0
  9
$DIMDEC
 70
    4
  9
$DIMTDEC
 70
    2
  9
$DIMALTU
 70
    2
  9
$DIMALTTD
 70
    3
  9
$DIMTXSTY
  7
standard
  9
$DIMAUNIT
 70
    0
  9
$DIMADEC
 70
    2
  9
$DIMALTRND
 40
0
  9
$DIMAZIN
 70
    0
  9
$DIMDSEP
 70
   44
  9
$DIMATFIT
 70
    3
  9
$DIMFRAC
 70
    0
  9
$DIMLDRBLK
  1
STANDARD
  9
$DIMLUNIT
 70
    2
  9
$DIMLWD
 70
   -2
  9
$DIMLWE
 70
   -2
  9
$DIMTMOVE
 70
    0
  9
$DIMFXL
 40
1
  9
$DIMFXLON
 70
    0
  9
$DIMJOGANG
 40
0.7854
  9
$DIMTFILL
 70
    0
  9
$DIMTFILLCLR
 70
    0
  9
$DIMARCSYM
 70
    0
  9
$DIMLTYPE
  6

  9
$DIMLTEX1
  6

  9
$DIMLTEX2
  6

  9
$LUNITS
 70
    2
  9
$LUPREC
 70
    4
  9
$SKETCHINC
 40
1
  9
$FILLETRAD
 40
0
  9
$AUNITS
 70
    0
  9
$AUPREC
 70
    2
  9
$MENU
  1
.
  9
$ELEVATION
 40
0
  9
$PELEVATION
 40
0
  9
$THICKNESS
 40
0
  9
$LIMCHECK
 70
    0
  9
$CHAMFERA
 40
0
  9
$CHAMFERB
 40
0
  9
$CHAMFERC
 40
0
  9
$CHAMFERD
 40
0
  9
$SKPOLY
 70
    0
  9
$USRTIMER
 70
    1
  9
$ANGBASE
 50
0
  9
$ANGDIR
 70
    0
  9
$PDMODE
 70
   34
  9
$PDSIZE
 40
0
  9
$PLINEWID
 40
0
  9
$SPLFRAME
 70
    0
  9
$SPLINETYPE
 70
    2
  9
$SPLINESEGS
 70
    8
  9
$HANDSEED
  5
20000
  9
$SURFTAB1
 70
    6
  9
$SURFTAB2
 70
    6
  9
$SURFTYPE
 70
    6
  9
$SURFU
 70
    6
  9
$SURFV
 70
    6
  9
$UCSBASE
  2

  9
$UCSNAME
  2

  9
$UCSORG
 10
0
 20
0
 30
0
  9
$UCSXDIR
 10
1
 20
0
 30
0
  9
$UCSYDIR
 10
0
 20
1
 30
0
  9
$UCSORTHOREF
  2

  9
$UCSORTHOVIEW
 70
    0
  9
$UCSORGTOP
 10
0
 20
0
 30
0
  9
$UCSORGBOTTOM
 10
0
 20
0
 30
0
  9
$UCSORGLEFT
 10
0
 20
0
 30
0
  9
$UCSORGRIGHT
 10
0
 20
0
 30
0
  9
$UCSORGFRONT
 10
0
 20
0
 30
0
  9
$UCSORGBACK
 10
0
 20
0
 30
0
  9
$PUCSBASE
  2

  9
$PUCSNAME
  2

  9
$PUCSORG
 10
0
 20
0
 30
0
  9
$PUCSXDIR
 10
1
 20
0
 30
0
  9
$PUCSYDIR
 10
0
 20
1
 30
0
  9
$PUCSORTHOREF
  2

  9
$PUCSORTHOVIEW
 70
    0
  9
$PUCSORGTOP
 10
0
 20
0
 30
0
  9
$PUCSORGBOTTOM
 10
0
 20
0
 30
0
  9
$PUCSORGLEFT
 10
0
 20
0
 30
0
  9
$PUCSORGRIGHT
 10
0
 20
0
 30
0
  9
$PUCSORGFRONT
 10
0
 20
0
 30
0
  9
$PUCSORGBACK
 10
0
 20
0
 30
0
  9
$USERI1
 70
    0
  9
$USERI2
 70
    0
  9
$USERI3
 70
    0
  9
$USERI4
 70
    0
  9
$USERI5
 70
    0
  9
$USERR1
 40
0
  9
$USERR2
 40
0
  9
$USERR3
 40
0
  9
$USERR4
 40
0
  9
$USERR5
 40
0
  9
$WORLDVIEW
 70
    1
  9
$SHADEDGE
 70
    3
  9
$SHADEDIF
 70
   70
  9
$TILEMODE
 70
    1
  9
$MAXACTVP
 70
   64
  9
$PINSBASE
 10
0.7722136511673419
 20
4.662178569812737
 30
0
  9
$PLIMCHECK
 70
    0
  9
$PEXTMIN
 10
0
 20
0
 30
0
  9
$PEXTMAX
 10
0
 20
0
 30
0
  9
$GRIDMODE
 70
    1
  9
$SNAPSTYLE
 70
    0
  9
$GRIDUNIT
 10
0
 20
0
  9
$PLIMMIN
 10
0
 20
0
  9
$PLIMMAX
 10
8.267716535433072
 20
11.69291338582677
  9
$UNITMODE
 70
    0
  9
$VISRETAIN
 70
    1
  9
$PLINEGEN
 70
    0
  9
$PSLTSCALE
 70
    1
  9
$TREEDEPTH
 70
 3020
  9
$CMLSTYLE
  2
Standard
  9
$CMLJUST
 70
    0
  9
$CMLSCALE
 40
20
  9
$PROXYGRAPHICS
 70
    1
  9
$MEASUREMENT
 70
    1
  9
$CELWEIGHT
370
   -1
  9
$ENDCAPS
280
    0
  9
$JOINSTYLE
280
    0
  9
$LWDISPLAY
290
    0
  9
$INSUNITS
 70
    1
  9
$HYPERLINKBASE
  1

  9
$STYLESHEET
  1

  9
$XEDIT
290
    1
  9
$CEPSNTYPE
380
    0
  9
$PSTYLEMODE
290
    1
  9
$EXTNAMES
290
    1
  9
$PSVPSCALE
 40
0.04289433837627771
  9
$OLESTARTUP
290
    0
  9
$SORTENTS
280
  127
  9
$INDEXCTL
280
    0
  9
$HIDETEXT
280
    1
  9
$XCLIPFRAME
290
    0
  9
$HALOGAP
280
    0
  9
$OBSCOLOR
 70
  257
  9
$OBSLTYPE
280
    0
  9
$INTERSECTIONDISPLAY
280
    0
  9
$INTERSECTIONCOLOR
 70
  257
  9
$DIMASSOC
280
    1
  9
$PROJECTNAME
  1

  9
$CAMERADISPLAY
290
    0
  9
$LENSLENGTH
 40
50
  9
$CAMERAHEIGHT
 40
0
  9
$STEPSPERSEC
 40
2
  9
$STEPSIZE
 40
50
  9
$3DDWFPREC
 40
2
  9
$PSOLWIDTH
 40
5
  9
$PSOLHEIGHT
 40
80
  9
$LOFTANG1
 40
1.570796326794897
  9
$LOFTANG2
 40
1.570796326794897
  9
$LOFTMAG1
 40
0
  9
$LOFTMAG2
 40
0
  9
$LOFTPARAM
 70
    7
  9
$LOFTNORMALS
280
    1
  9
$LATITUDE
 40
1
  9
$LONGITUDE
 40
1
  9
$NORTHDIRECTION
 40
0
  9
$TIMEZONE
 70
-8000
  9
$LIGHTGLYPHDISPLAY
280
    1
  9
$TILEMODELIGHTSYNCH
280
    1
  9
$SOLIDHIST
280
    1
  9
$SHOWHIST
280
    1
  9
$DWFFRAME
280
    2
  9
$DGNFRAME
280
    0
  9
$REALWORLDSCALE
290
    1
  9
$INTERFERECOLOR
 62
    1
  9
$CSHADOW
280
    0
  9
$SHADOWPLANELOCATION
 40
0
  0
ENDSEC
  0
SECTION
  2
CLASSES
  0
ENDSEC
  0
SECTION
  2
TABLES
  0
TABLE
  2
VPORT
  5
8
330
0
100
AcDbSymbolTable
 70
    1
  0
VPORT
  5
31
330
2
100
AcDbSymbolTableRecord
100
AcDbViewportTableRecord
  2
*ACTIVE
 70
    0
 10
0
 20
0
 11
1
 21
1
 12
150.355205634715
 22
44.97231597109779
 13
0
 23
0
 14
10
 24
10
 15
10
 25
10
 16
0
 26
0
 36
1
 17
0
 27
0
 37
0
 40
185.2590926570596
 41
2.266666666666667
 42
50
 43
0
 44
0
 50
0
 51
0
 71
    0
 72
  100
 73
    1
 74
    3
 75
    0
 76
    1
 77
    0
 78
    0
281
    0
 65
    1
110
0
120
0
130
0
111
1
121
0
131
0
112
0
122
1
132
0
 79
    0
146
0
348
10020
 60
    7
 61
    5
292
1
282
    1
141
0
142
0
 63
  250
421
3358443
  0
ENDTAB
  0
TABLE
  2
LTYPE
  5
5
330
0
100
AcDbSymbolTable
 70
    4
  0
LTYPE
  5
14
330
5
100
AcDbSymbolTableRecord
100
AcDbLinetypeTableRecord
  2
ByBlock
 70
    0
  3

 72
   65
 73
    0
 40
0
  0
LTYPE
  5
15
330
5
100
AcDbSymbolTableRecord
100
AcDbLinetypeTableRecord
  2
ByLayer
 70
    0
  3

 72
   65
 73
    0
 40
0
  0
LTYPE
  5
16
330
5
100
AcDbSymbolTableRecord
100
AcDbLinetypeTableRecord
  2
Continuous
 70
    0
  3
Solid line
 72
   65
 73
    0
 40
0
  0
LTYPE
  5
32
330
5
100
AcDbSymbolTableRecord
100
AcDbLinetypeTableRecord
  2
DOT
 70
    0
  3
Dot . . . . . . . . . . . . . . . . . . . . . .
 72
   65
 73
    2
 40
6.35
 49
0
 74
    0
 49
-6.35
 74
    0
  0
LTYPE
  5
33
330
5
100
AcDbSymbolTableRecord
100
AcDbLinetypeTableRecord
  2
DOTTINY
 70
    0
  3
Dot (.15x) .....................................
 72
   65
 73
    2
 40
0.9525
 49
0
 74
    0
 49
-0.9525
 74
    0
  0
LTYPE
  5
34
330
5
100
AcDbSymbolTableRecord
100
AcDbLinetypeTableRecord
  2
DOT2
 70
    0
  3
Dot (.5x) .....................................
 72
   65
 73
    2
 40
3.175
 49
0
 74
    0
 49
-3.175
 74
    0
  0
LTYPE
  5
35
330
5
100
AcDbSymbolTableRecord
100
AcDbLinetypeTableRecord
  2
DOTX2
 70
    0
  3
Dot (2x) .  .  .  .  .  .  .  .  .  .  .  .  .
 72
   65
 73
    2
 40
12.7
 49
0
 74
    0
 49
-12.7
 74
    0
  0
LTYPE
  5
36
330
5
100
AcDbSymbolTableRecord
100
AcDbLinetypeTableRecord
  2
DASHED
 70
    0
  3
Dashed _ _ _ _ _ _ _ _ _ _ _ _ _ _ _ _ _
 72
   65
 73
    2
 40
19.05
 49
12.7
 74
    0
 49
-6.35
 74
    0
  0
LTYPE
  5
37
330
5
100
AcDbSymbolTableRecord
100
AcDbLinetypeTableRecord
  2
DASHEDTINY
 70
    0
  3
Dashed (.15x) _ _ _ _ _ _ _ _ _ _ _ _ _ _ _ _ _
 72
   65
 73
    2
 40
2.8575
 49
1.905
 74
    0
 49
-0.9525
 74
    0
  0
LTYPE
  5
38
330
5
100
AcDbSymbolTableRecord
100
AcDbLinetypeTableRecord
  2
DASHED2
 70
    0
  3
Dashed (.5x) _ _ _ _ _ _ _ _ _ _ _ _ _ _ _ _ _
 72
   65
 73
    2
 40
9.524999999999999
 49
6.35
 74
    0
 49
-3.175
 74
    0
  0
LTYPE
  5
39
330
5
100
AcDbSymbolTableRecord
100
AcDbLinetypeTableRecord
  2
DASHEDX2
 70
    0
  3
Dashed (2x) ____  ____  ____  ____  ____  ___
 72
   65
 73
    2
 40
38.09999999999999
 49
25.4
 74
    0
 49
-12.7
 74
    0
  0
LTYPE
  5
3A
330
5
100
AcDbSymbolTableRecord
100
AcDbLinetypeTableRecord
  2
DASHDOT
 70
    0
  3
Dash dot __ . __ . __ . __ . __ . __ . __ . __
 72
   65
 73
    4
 40
25.4
 49
12.7
 74
    0
 49
-6.35
 74
    0
 49
0
 74
    0
 49
-6.35
 74
    0
  0
LTYPE
  5
3B
330
5
100
AcDbSymbolTableRecord
100
AcDbLinetypeTableRecord
  2
DASHDOTTINY
 70
    0
  3
Dash dot (.15x) _._._._._._._._._._._._._._._.
 72
   65
 73
    4
 40
3.81
 49
1.905
 74
    0
 49
-0.9525
 74
    0
 49
0
 74
    0
 49
-0.9525
 74
    0
  0
LTYPE
  5
3C
330
5
100
AcDbSymbolTableRecord
100
AcDbLinetypeTableRecord
  2
DASHDOT2
 70
    0
  3
Dash dot (.5x) _._._._._._._._._._._._._._._.
 72
   65
 73
    4
 40
12.7
 49
6.35
 74
    0
 49
-3.175
 74
    0
 49
0
 74
    0
 49
-3.175
 74
    0
  0
LTYPE
  5
3D
330
5
100
AcDbSymbolTableRecord
100
AcDbLinetypeTableRecord
  2
DASHDOTX2
 70
    0
  3
Dash dot (2x) ____  .  ____  .  ____  .  ___
 72
   65
 73
    4
 40
50.8
 49
25.4
 74
    0
 49
-12.7
 74
    0
 49
0
 74
    0
 49
-12.7
 74
    0
  0
LTYPE
  5
3E
330
5
100
AcDbSymbolTableRecord
100
AcDbLinetypeTableRecord
  2
DIVIDE
 70
    0
  3
Divide ____ . . ____ . . ____ . . ____ . . ____
 72
   65
 73
    6
 40
31.75
 49
12.7
 74
    0
 49
-6.35
 74
    0
 49
0
 74
    0
 49
-6.35
 74
    0
 49
0
 74
    0
 49
-6.35
 74
    0
  0
LTYPE
  5
3F
330
5
100
AcDbSymbolTableRecord
100
AcDbLinetypeTableRecord
  2
DIVIDETINY
 70
    0
  3
Divide (.15x) __..__..__..__..__..__..__..__.._
 72
   65
 73
    6
 40
4.7625
 49
1.905
 74
    0
 49
-0.9525
 74
    0
 49
0
 74
    0
 49
-0.9525
 74
    0
 49
0
 74
    0
 49
-0.9525
 74
    0
  0
LTYPE
  5
40
330
5
100
AcDbSymbolTableRecord
100
AcDbLinetypeTableRecord
  2
DIVIDE2
 70
    0
  3
Divide (.5x) __..__..__..__..__..__..__..__.._
 72
   65
 73
    6
 40
15.875
 49
6.35
 74
    0
 49
-3.175
 74
    0
 49
0
 74
    0
 49
-3.175
 74
    0
 49
0
 74
    0
 49
-3.175
 74
    0
  0
LTYPE
  5
41
330
5
100
AcDbSymbolTableRecord
100
AcDbLinetypeTableRecord
  2
DIVIDEX2
 70
    0
  3
Divide (2x) ________  .  .  ________  .  .  _
 72
   65
 73
    6
 40
63.5
 49
25.4
 74
    0
 49
-12.7
 74
    0
 49
0
 74
    0
 49
-12.7
 74
    0
 49
0
 74
    0
 49
-12.7
 74
    0
  0
LTYPE
  5
42
330
5
100
AcDbSymbolTableRecord
100
AcDbLinetypeTableRecord
  2
BORDER
 70
    0
  3
Border __ __ . __ __ . __ __ . __ __ . __ __ .
 72
   65
 73
    6
 40
44.45
 49
12.7
 74
    0
 49
-6.35
 74
    0
 49
12.7
 74
    0
 49
-6.35
 74
    0
 49
0
 74
    0
 49
-6.35
 74
    0
  0
LTYPE
  5
43
330
5
100
AcDbSymbolTableRecord
100
AcDbLinetypeTableRecord
  2
BORDERTINY
 70
    0
  3
Border (.15x) __.__.__.__.__.__.__.__.__.__.__.
 72
   65
 73
    6
 40
6.6675
 49
1.905
 74
    0
 49
-0.9525
 74
    0
 49
1.905
 74
    0
 49
-0.9525
 74
    0
 49
0
 74
    0
 49
-0.9525
 74
    0
  0
LTYPE
  5
44
330
5
100
AcDbSymbolTableRecord
100
AcDbLinetypeTableRecord
  2
BORDER2
 70
    0
  3
Border (.5x) __.__.__.__.__.__.__.__.__.__.__.
 72
   65
 73
    6
 40
22.225
 49
6.35
 74
    0
 49
-3.175
 74
    0
 49
6.35
 74
    0
 49
-3.175
 74
    0
 49
0
 74
    0
 49
-3.175
 74
    0
  0
LTYPE
  5
45
330
5
100
AcDbSymbolTableRecord
100
AcDbLinetypeTableRecord
  2
BORDERX2
 70
    0
  3
Border (2x) ____  ____  .  ____  ____  .  ___
 72
   65
 73
    6
 40
88.89999999999999
 49
25.4
 74
    0
 49
-12.7
 74
    0
 49
25.4
 74
    0
 49
-12.7
 74
    0
 49
0
 74
    0
 49
-12.7
 74
    0
  0
LTYPE
  5
46
330
5
100
AcDbSymbolTableRecord
100
AcDbLinetypeTableRecord
  2
CENTER
 70
    0
  3
Center ____ _ ____ _ ____ _ ____ _ ____ _ ____
 72
   65
 73
    4
 40
50.8
 49
31.75
 74
    0
 49
-6.35
 74
    0
 49
6.35
 74
    0
 49
-6.35
 74
    0
  0
LTYPE
  5
47
330
5
100
AcDbSymbolTableRecord
100
AcDbLinetypeTableRecord
  2
CENTERTINY
 70
    0
  3
Center (.15x) ___ _ ___ _ ___ _ ___ _ ___ _ ___
 72
   65
 73
    4
 40
7.619999999999999
 49
4.7625
 74
    0
 49
-0.9525
 74
    0
 49
0.9525
 74
    0
 49
-0.9525
 74
    0
  0
LTYPE
  5
48
330
5
100
AcDbSymbolTableRecord
100
AcDbLinetypeTableRecord
  2
CENTER2
 70
    0
  3
Center (.5x) ___ _ ___ _ ___ _ ___ _ ___ _ ___
 72
   65
 73
    4
 40
28.575
 49
19.05
 74
    0
 49
-3.175
 74
    0
 49
3.175
 74
    0
 49
-3.175
 74
    0
  0
LTYPE
  5
49
330
5
100
AcDbSymbolTableRecord
100
AcDbLinetypeTableRecord
  2
CENTERX2
 70
    0
  3
Center (2x) ________  __  ________  __  _____
 72
   65
 73
    4
 40
101.6
 49
63.5
 74
    0
 49
-12.7
 74
    0
 49
12.7
 74
    0
 49
-12.7
 74
    0
  0
ENDTAB
  0
TABLE
  2
LAYER
  5
2
330
0
100
AcDbSymbolTable
 70
    1
  0
LAYER
  5
10
330
2
100
AcDbSymbolTableRecord
100
AcDbLayerTableRecord
  2
0
 70
    4
 62
    7
  6
CONTINUOUS
370
    0
390
F
  0
LAYER
  5
4A
330
2
100
AcDbSymbolTableRecord
100
AcDbLayerTableRecord
  2
Cuts
 70
    4
 62
    7
  6
CONTINUOUS
370
   60
390
F
  0
LAYER
  5
4B
330
2
100
AcDbSymbolTableRecord
100
AcDbLayerTableRecord
  2
Dimensions
 70
    5
 62
    7
  6
CONTINUOUS
370
    0
390
F
  0
LAYER
  5
4C
330
2
100
AcDbSymbolTableRecord
100
AcDbLayerTableRecord
  2
Dimensions2
 70
    4
 62
    7
  6
CONTINUOUS
370
    0
390
F
  0
LAYER
  5
4D
330
2
100
AcDbSymbolTableRecord
100
AcDbLayerTableRecord
  2
Dimensions3
 70
    5
 62
    7
  6
CONTINUOUS
370
    0
390
F
  0
LAYER
  5
4E
330
2
100
AcDbSymbolTableRecord
100
AcDbLayerTableRecord
  2
Outline
 70
    4
 62
    7
  6
CONTINUOUS
370
    0
390
F
  0
ENDTAB
  0
TABLE
  2
STYLE
  5
3
330
0
100
AcDbSymbolTable
 70
    3
  0
STYLE
  5
4F
330
2
100
AcDbSymbolTableRecord
100
AcDbTextStyleTableRecord
  2
standard
 70
    0
 40
0
 41
1
 50
0
 71
    0
 42
1
  3
standard
  4

  0
ENDTAB
  0
TABLE
  2
VIEW
  5
6
330
0
100
AcDbSymbolTable
 70
    0
  0
ENDTAB
  0
TABLE
  2
UCS
  5
7
330
0
100
AcDbSymbolTable
 70
    0
  0
ENDTAB
  0
TABLE
  2
APPID
  5
9
330
0
100
AcDbSymbolTable
 70
    1
  0
APPID
  5
12
330
9
100
AcDbSymbolTableRecord
100
AcDbRegAppTableRecord
  2
ACAD
 70
    0
  0
APPID
  5
50
330
9
100
AcDbSymbolTableRecord
100
AcDbRegAppTableRecord
  2
LibreCad
 70
    0
  0
ENDTAB
  0
TABLE
  2
DIMSTYLE
  5
A
330
0
100
AcDbSymbolTable
 70
    1
100
AcDbDimStyleTable
 71
    1
  0
DIMSTYLE
105
51
330
A
100
AcDbSymbolTableRecord
100
AcDbDimStyleTableRecord
  2
Standard
 70
    0
 40
2
 41
2
 42
0.625
 43
0.38
 44
0.05
 45
0
 46
0
 47
0
 48
0
 49
1
140
2.5
141
0.09
142
0
143
25.4
144
0.0393701
145
0
146
1
147
0.025
148
0
 71
    0
 72
    0
 73
    0
 74
    1
 75
    0
 76
    0
 77
    0
 78
    8
 79
    0
170
    0
171
    2
172
    0
173
    0
174
    0
175
    0
176
    0
177
    0
178
    0
179
    2
271
    4
272
    4
273
    2
274
    2
275
    0
276
    0
277
    2
278
   44
279
    0
280
    0
281
    0
282
    0
283
    1
284
    0
285
    0
286
    0
288
    0
289
    3
340
standard
341

371
   -2
372
   -2
  0
ENDTAB
  0
TABLE
  2
BLOCK_RECORD
  5
1
330
0
100
AcDbSymbolTable
 70
    2
  0
BLOCK_RECORD
  5
1F
330
1
100
AcDbSymbolTableRecord
100
AcDbBlockTableRecord
  2
*Model_Space
 70
    0
280
    1
281
    0
  0
BLOCK_RECORD
  5
1E
330
1
100
AcDbSymbolTableRecord
100
AcDbBlockTableRecord
  2
*Paper_Space
 70
    0
280
    1
281
    0
  0
BLOCK_RECORD
  5
52
330
1
100
AcDbSymbolTableRecord
100
AcDbBlockTableRecord
  2
*D7
 70
    0
280
    1
281
    0
  0
BLOCK_RECORD
  5
55
330
1
100
AcDbSymbolTableRecord
100
AcDbBlockTableRecord
  2
*D23
 70
    0
280
    1
281
    0
  0
BLOCK_RECORD
  5
58
330
1
100
AcDbSymbolTableRecord
100
AcDbBlockTableRecord
  2
*D13
 70
    0
280
    1
281
    0
  0
BLOCK_RECORD
  5
5B
330
1
100
AcDbSymbolTableRecord
100
AcDbBlockTableRecord
  2
*D22
 70
    0
280
    1
281
    0
  0
BLOCK_RECORD
  5
5E
330
1
100
AcDbSymbolTableRecord
100
AcDbBlockTableRecord
  2
*D15
 70
    0
280
    1
281
    0
  0
BLOCK_RECORD
  5
61
330
1
100
AcDbSymbolTableRecord
100
AcDbBlockTableRecord
  2
*D6
 70
    0
280
    1
281
    0
  0
BLOCK_RECORD
  5
64
330
1
100
AcDbSymbolTableRecord
100
AcDbBlockTableRecord
  2
*D5
 70
    0
280
    1
281
    0
  0
BLOCK_RECORD
  5
67
330
1
100
AcDbSymbolTableRecord
100
AcDbBlockTableRecord
  2
*D4
 70
    0
280
    1
281
    0
  0
BLOCK_RECORD
  5
6A
330
1
100
AcDbSymbolTableRecord
100
AcDbBlockTableRecord
  2
*D20
 70
    0
280
    1
281
    0
  0
BLOCK_RECORD
  5
6D
330
1
100
AcDbSymbolTableRecord
100
AcDbBlockTableRecord
  2
*D26
 70
    0
280
    1
281
    0
  0
BLOCK_RECORD
  5
70
330
1
100
AcDbSymbolTableRecord
100
AcDbBlockTableRecord
  2
*D19
 70
    0
280
    1
281
    0
  0
BLOCK_RECORD
  5
73
330
1
100
AcDbSymbolTableRecord
100
AcDbBlockTableRecord
  2
*D12
 70
    0
280
    1
281
    0
  0
BLOCK_RECORD
  5
76
330
1
100
AcDbSymbolTableRecord
100
AcDbBlockTableRecord
  2
*D27
 70
    0
280
    1
281
    0
  0
BLOCK_RECORD
  5
79
330
1
100
AcDbSymbolTableRecord
100
AcDbBlockTableRecord
  2
*D18
 70
    0
280
    1
281
    0
  0
BLOCK_RECORD
  5
7C
330
1
100
AcDbSymbolTableRecord
100
AcDbBlockTableRecord
  2
*D10
 70
    0
280
    1
281
    0
  0
BLOCK_RECORD
  5
7F
330
1
100
AcDbSymbolTableRecord
100
AcDbBlockTableRecord
  2
*D25
 70
    0
280
    1
281
    0
  0
BLOCK_RECORD
  5
82
330
1
100
AcDbSymbolTableRecord
100
AcDbBlockTableRecord
  2
*D24
 70
    0
280
    1
281
    0
  0
BLOCK_RECORD
  5
85
330
1
100
AcDbSymbolTableRecord
100
AcDbBlockTableRecord
  2
*D11
 70
    0
280
    1
281
    0
  0
BLOCK_RECORD
  5
88
330
1
100
AcDbSymbolTableRecord
100
AcDbBlockTableRecord
  2
*D28
 70
    0
280
    1
281
    0
  0
BLOCK_RECORD
  5
8B
330
1
100
AcDbSymbolTableRecord
100
AcDbBlockTableRecord
  2
*D8
 70
    0
280
    1
281
    0
  0
BLOCK_RECORD
  5
8E
330
1
100
AcDbSymbolTableRecord
100
AcDbBlockTableRecord
  2
*D9
 70
    0
280
    1
281
    0
  0
BLOCK_RECORD
  5
91
330
1
100
AcDbSymbolTableRecord
100
AcDbBlockTableRecord
  2
*D14
 70
    0
280
    1
281
    0
  0
BLOCK_RECORD
  5
94
330
1
100
AcDbSymbolTableRecord
100
AcDbBlockTableRecord
  2
*D1
 70
    0
280
    1
281
    0
  0
BLOCK_RECORD
  5
97
330
1
100
AcDbSymbolTableRecord
100
AcDbBlockTableRecord
  2
*D16
 70
    0
280
    1
281
    0
  0
BLOCK_RECORD
  5
9A
330
1
100
AcDbSymbolTableRecord
100
AcDbBlockTableRecord
  2
*D2
 70
    0
280
    1
281
    0
  0
BLOCK_RECORD
  5
9D
330
1
100
AcDbSymbolTableRecord
100
AcDbBlockTableRecord
  2
*D3
 70
    0
280
    1
281
    0
  0
BLOCK_RECORD
  5
A0
330
1
100
AcDbSymbolTableRecord
100
AcDbBlockTableRecord
  2
*D21
 70
    0
280
    1
281
    0
  0
BLOCK_RECORD
  5
A3
330
1
100
AcDbSymbolTableRecord
100
AcDbBlockTableRecord
  2
*D17
 70
    0
280
    1
281
    0
  0
ENDTAB
  0
ENDSEC
  0
SECTION
  2
BLOCKS
  0
BLOCK
  5
20
330
1F
100
AcDbEntity
  8
0
100
AcDbBlockBegin
  2
*Model_Space
 70
    0
 10
0
 20
0
 30
0
  3
*Model_Space
  1

  0
ENDBLK
  5
21
330
1F
100
AcDbEntity
  8
0
100
AcDbBlockEnd
  0
BLOCK
  5
1C
330
1B
100
AcDbEntity
  8
0
100
AcDbBlockBegin
  2
*Paper_Space
 70
    0
 10
0
 20
0
 30
0
  3
*Paper_Space
  1

  0
ENDBLK
  5
1D
330
1F
100
AcDbEntity
  8
0
100
AcDbBlockEnd
  0
BLOCK
  5
53
330
52
100
AcDbEntity
  8
0
100
AcDbBlockBegin
  2
*D7
 70
    1
 10
0
 20
0
  3
*D7
  1

  0
LINE
  5
A6
100
AcDbEntity
  8
Dimensions2
  6
ByBlock
 62
    0
370
   -2
100
AcDbLine
 10
169.8
 20
-20
 11
110
 21
-20
  0
SOLID
  5
A7
100
AcDbEntity
  8
Dimensions2
  6
ByBlock
 62
    0
370
   -2
100
AcDbTrace
 10
169.8
 20
-20
 30
0
 11
165.8
 21
-20.66605545243655
 31
0
 12
165.8
 22
-19.33394454756345
 32
0
 13
165.8
 23
-19.33394454756345
 33
0
  0
SOLID
  5
A8
100
AcDbEntity
  8
Dimensions2
  6
ByBlock
 62
    0
370
   -2
100
AcDbTrace
 10
110
 20
-20
 30
0
 11
114
 21
-19.33394454756345
 31
0
 12
114
 22
-20.66605545243655
 32
0
 13
114
 23
-20.66605545243655
 33
0
  0
MTEXT
  5
A9
100
AcDbEntity
  8
Dimensions2
  6
CONTINUOUS
 62
    0
370
   -2
100
AcDbMText
 10
139.9
 20
-17.45
 30
0
 40
5
 41
20.27777777777871
 71
    5
 72
    1
  1
2,3543
  7
standard
210
0
220
0
230
1
 50
360
 73
    2
 44
1
  0
LINE
  5
AA
100
AcDbEntity
  8
Dimensions2
  6
ByBlock
 62
    0
370
   -2
100
AcDbLine
 10
169.8
 20
10.91000000000963
 11
169.8
 21
-20.1
  0
LINE
  5
AB
100
AcDbEntity
  8
Dimensions2
  6
ByBlock
 62
    0
370
   -2
100
AcDbLine
 10
110
 20
38.75
 11
110
 21
-20.1
  0
ENDBLK
  5
54
330
52
100
AcDbEntity
  8
0
100
AcDbBlockEnd
  0
BLOCK
  5
56
330
55
100
AcDbEntity
  8
0
100
AcDbBlockBegin
  2
*D23
 70
    1
 10
0
 20
0
  3
*D23
  1

  0
LINE
  5
AC
100
AcDbEntity
  8
Dimensions3
  6
ByBlock
 62
    0
370
   -2
100
AcDbLine
 10
169.8
 20
-20
 11
58.166
 21
-20
  0
SOLID
  5
AD
100
AcDbEntity
  8
Dimensions3
  6
ByBlock
 62
    0
370
   -2
100
AcDbTrace
 10
169.8
 20
-20
 30
0
 11
165.8
 21
-20.66605545243655
 31
0
 12
165.8
 22
-19.33394454756345
 32
0
 13
165.8
 23
-19.33394454756345
 33
0
  0
SOLID
  5
AE
100
AcDbEntity
  8
Dimensions3
  6
ByBlock
 62
    0
370
   -2
100
AcDbTrace
 10
58.166
 20
-20
 30
0
 11
62.166
 21
-19.33394454756345
 31
0
 12
62.166
 22
-20.66605545243655
 32
0
 13
62.166
 23
-20.66605545243655
 33
0
  0
MTEXT
  5
AF
100
AcDbEntity
  8
Dimensions3
  6
CONTINUOUS
 62
    0
370
   -2
100
AcDbMText
 10
113.983
 20
-17.45
 30
0
 40
5
 41
16.38888888888951
 71
    5
 72
    1
  1
4,395
  7
standard
210
0
220
0
230
1
 50
360
 73
    2
 44
1
  0
LINE
  5
B0
100
AcDbEntity
  8
Dimensions3
  6
ByBlock
 62
    0
370
   -2
100
AcDbLine
 10
169.8
 20
6.750000000023286
 11
169.8
 21
-20.1
  0
LINE
  5
B1
100
AcDbEntity
  8
Dimensions3
  6
ByBlock
 62
    0
370
   -2
100
AcDbLine
 10
58.166
 20
26.7500000000815
 11
58.166
 21
-20.1
  0
ENDBLK
  5
57
330
55
100
AcDbEntity
  8
0
100
AcDbBlockEnd
  0
BLOCK
  5
59
330
58
100
AcDbEntity
  8
0
100
AcDbBlockBegin
  2
*D13
 70
    1
 10
0
 20
0
  3
*D13
  1

  0
LINE
  5
B2
100
AcDbEntity
  8
Dimensions
  6
ByBlock
 62
    0
370
   -2
100
AcDbLine
 10
169.8
 20
60
 11
66.827
 21
60
  0
SOLID
  5
B3
100
AcDbEntity
  8
Dimensions
  6
ByBlock
 62
    0
370
   -2
100
AcDbTrace
 10
169.8
 20
60
 30
0
 11
165.8
 21
59.33394454756345
 31
0
 12
165.8
 22
60.66605545243655
 32
0
 13
165.8
 23
60.66605545243655
 33
0
  0
SOLID
  5
B4
100
AcDbEntity
  8
Dimensions
  6
ByBlock
 62
    0
370
   -2
100
AcDbTrace
 10
66.827
 20
60
 30
0
 11
70.827
 21
60.66605545243655
 31
0
 12
70.827
 22
59.33394454756345
 32
0
 13
70.827
 23
59.33394454756345
 33
0
  0
MTEXT
  5
B5
100
AcDbEntity
  8
Dimensions
  6
CONTINUOUS
 62
    0
370
   -2
100
AcDbMText
 10
118.3135
 20
62.55
 30
0
 40
5
 41
19.72222222222253
 71
    5
 72
    1
  1
4,0541
  7
standard
210
0
220
0
230
1
 50
360
 73
    2
 44
1
  0
LINE
  5
B6
100
AcDbEntity
  8
Dimensions
  6
ByBlock
 62
    0
370
   -2
100
AcDbLine
 10
169.8
 20
4.57800000000855
 11
169.8
 21
60.1
  0
LINE
  5
B7
100
AcDbEntity
  8
Dimensions
  6
ByBlock
 62
    0
370
   -2
100
AcDbLine
 10
66.827
 20
13.92200000003256
 11
66.827
 21
60.1
  0
ENDBLK
  5
5A
330
58
100
AcDbEntity
  8
0
100
AcDbBlockEnd
  0
BLOCK
  5
5C
330
5B
100
AcDbEntity
  8
0
100
AcDbBlockBegin
  2
*D22
 70
    1
 10
0
 20
0
  3
*D22
  1

  0
LINE
  5
B8
100
AcDbEntity
  8
Dimensions3
  6
ByBlock
 62
    0
370
   -2
100
AcDbLine
 10
169.8
 20
-9.999999999999996
 11
70.358
 21
-9.999999999999996
  0
SOLID
  5
B9
100
AcDbEntity
  8
Dimensions3
  6
ByBlock
 62
    0
370
   -2
100
AcDbTrace
 10
169.8
 20
-9.999999999999996
 30
0
 11
165.8
 21
-10.66605545243654
 31
0
 12
165.8
 22
-9.333944547563451
 32
0
 13
165.8
 23
-9.333944547563451
 33
0
  0
SOLID
  5
BA
100
AcDbEntity
  8
Dimensions3
  6
ByBlock
 62
    0
370
   -2
100
AcDbTrace
 10
70.358
 20
-9.999999999999996
 30
0
 11
74.358
 21
-9.333944547563451
 31
0
 12
74.358
 22
-10.66605545243654
 32
0
 13
74.358
 23
-10.66605545243654
 33
0
  0
MTEXT
  5
BB
100
AcDbEntity
  8
Dimensions3
  6
CONTINUOUS
 62
    0
370
   -2
100
AcDbMText
 10
120.079
 20
-7.449999999999997
 30
0
 40
5
 41
14.72222222222284
 71
    5
 72
    1
  1
3,915
  7
standard
210
0
220
0
230
1
 50
360
 73
    2
 44
1
  0
LINE
  5
BC
100
AcDbEntity
  8
Dimensions3
  6
ByBlock
 62
    0
370
   -2
100
AcDbLine
 10
169.8
 20
7.39000000002515
 11
169.8
 21
-10.1
  0
LINE
  5
BD
100
AcDbEntity
  8
Dimensions3
  6
ByBlock
 62
    0
370
   -2
100
AcDbLine
 10
70.358
 20
26.27000000008011
 11
70.358
 21
-10.1
  0
ENDBLK
  5
5D
330
5B
100
AcDbEntity
  8
0
100
AcDbBlockEnd
  0
BLOCK
  5
5F
330
5E
100
AcDbEntity
  8
0
100
AcDbBlockBegin
  2
*D15
 70
    1
 10
0
 20
0
  3
*D15
  1

  0
LINE
  5
BE
100
AcDbEntity
  8
Dimensions
  6
ByBlock
 62
    0
370
   -2
100
AcDbLine
 10
169.8
 20
80
 11
24
 21
80
  0
SOLID
  5
BF
100
AcDbEntity
  8
Dimensions
  6
ByBlock
 62
    0
370
   -2
100
AcDbTrace
 10
169.8
 20
80
 30
0
 11
165.8
 21
79.33394454756346
 31
0
 12
165.8
 22
80.66605545243654
 32
0
 13
165.8
 23
80.66605545243654
 33
0
  0
SOLID
  5
C0
100
AcDbEntity
  8
Dimensions
  6
ByBlock
 62
    0
370
   -2
100
AcDbTrace
 10
24
 20
80
 30
0
 11
28
 21
80.66605545243654
 31
0
 12
28
 22
79.33394454756345
 32
0
 13
28
 23
79.33394454756345
 33
0
  0
MTEXT
  5
C1
100
AcDbEntity
  8
Dimensions
  6
CONTINUOUS
 62
    0
370
   -2
100
AcDbMText
 10
96.90000000000001
 20
82.55
 30
0
 40
5
 41
20.27777777777808
 71
    5
 72
    1
  1
5,7402
  7
standard
210
0
220
0
230
1
 50
360
 73
    2
 44
1
  0
LINE
  5
C2
100
AcDbEntity
  8
Dimensions
  6
ByBlock
 62
    0
370
   -2
100
AcDbLine
 10
169.8
 20
9.570000000021375
 11
169.8
 21
80.09999999999999
  0
LINE
  5
C3
100
AcDbEntity
  8
Dimensions
  6
ByBlock
 62
    0
370
   -2
100
AcDbLine
 10
24
 20
11.8740000000273
 11
24
 21
80.09999999999999
  0
ENDBLK
  5
60
330
5E
100
AcDbEntity
  8
0
100
AcDbBlockEnd
  0
BLOCK
  5
62
330
61
100
AcDbEntity
  8
0
100
AcDbBlockBegin
  2
*D6
 70
    1
 10
0
 20
0
  3
*D6
  1

  0
LINE
  5
C4
100
AcDbEntity
  8
Dimensions2
  6
ByBlock
 62
    0
370
   -2
100
AcDbLine
 10
169.8
 20
-10
 11
138
 21
-10
  0
SOLID
  5
C5
100
AcDbEntity
  8
Dimensions2
  6
ByBlock
 62
    0
370
   -2
100
AcDbTrace
 10
169.8
 20
-10
 30
0
 11
165.8
 21
-10.66605545243655
 31
0
 12
165.8
 22
-9.333944547563455
 32
0
 13
165.8
 23
-9.333944547563455
 33
0
  0
SOLID
  5
C6
100
AcDbEntity
  8
Dimensions2
  6
ByBlock
 62
    0
370
   -2
100
AcDbTrace
 10
138
 20
-10
 30
0
 11
142
 21
-9.333944547563455
 31
0
 12
142
 22
-10.66605545243655
 32
0
 13
142
 23
-10.66605545243655
 33
0
  0
MTEXT
  5
C7
100
AcDbEntity
  8
Dimensions2
  6
CONTINUOUS
 62
    0
370
   -2
100
AcDbMText
 10
153.9
 20
-7.45
 30
0
 40
5
 41
14.72222222222253
 71
    5
 72
    1
  1
1,252
  7
standard
210
0
220
0
230
1
 50
360
 73
    2
 44
1
  0
LINE
  5
C8
100
AcDbEntity
  8
Dimensions2
  6
ByBlock
 62
    0
370
   -2
100
AcDbLine
 10
169.8
 20
32.99000000002688
 11
169.8
 21
-10.1
  0
LINE
  5
C9
100
AcDbEntity
  8
Dimensions2
  6
ByBlock
 62
    0
370
   -2
100
AcDbLine
 10
138
 20
38.75
 11
138
 21
-10.1
  0
ENDBLK
  5
63
330
61
100
AcDbEntity
  8
0
100
AcDbBlockEnd
  0
BLOCK
  5
65
330
64
100
AcDbEntity
  8
0
100
AcDbBlockBegin
  2
*D5
 70
    1
 10
0
 20
0
  3
*D5
  1

  0
SOLID
  5
CA
100
AcDbEntity
  8
Dimensions
  6
ByBlock
 62
    0
370
   -2
100
AcDbTrace
 10
125.9072730135172
 20
23.89614719319664
 30
0
 11
129.75571324187
 21
25.17408994407266
 31
0
 12
129.9621688651861
 22
23.85807492193844
 32
0
 13
129.9621688651861
 23
23.85807492193844
 33
0
  0
LINE
  5
CB
100
AcDbEntity
  8
Dimensions
  6
ByBlock
 62
    0
370
   -2
100
AcDbLine
 10
119.634
 20
22.912
 11
145.6107289352382
 21
26.98721318057722
  0
MTEXT
  5
CC
100
AcDbEntity
  8
Dimensions
  6
CONTINUOUS
 62
    0
370
   -2
100
AcDbMText
 10
135.3637922589995
 20
27.96086856239384
 30
0
 40
5
 41
11.94444444444476
 71
    5
 72
    1
  1
0,25
  7
standard
210
0
220
0
230
1
 50
8.915857284848299
 73
    2
 44
1
  0
ENDBLK
  5
66
330
64
100
AcDbEntity
  8
0
100
AcDbBlockEnd
  0
BLOCK
  5
68
330
67
100
AcDbEntity
  8
0
100
AcDbBlockBegin
  2
*D4
 70
    1
 10
0
 20
0
  3
*D4
  1

  0
LINE
  5
CD
100
AcDbEntity
  8
Dimensions2
  6
ByBlock
 62
    0
370
   -2
100
AcDbLine
 10
-9.999999999999988
 20
40
 11
-9.999999999999989
 21
2.184918912462319e-15
  0
SOLID
  5
CE
100
AcDbEntity
  8
Dimensions2
  6
ByBlock
 62
    0
370
   -2
100
AcDbTrace
 10
-9.999999999999988
 20
40
 30
0
 11
-9.333944547563442
 21
36
 31
0
 12
-10.66605545243653
 22
36
 32
0
 13
-10.66605545243653
 23
36
 33
0
  0
SOLID
  5
CF
100
AcDbEntity
  8
Dimensions2
  6
ByBlock
 62
    0
370
   -2
100
AcDbTrace
 10
-9.999999999999989
 20
2.184918912462319e-15
 30
0
 11
-10.66605545243653
 21
4.000000000000002
 31
0
 12
-9.333944547563444
 22
4.000000000000002
 32
0
 13
-9.333944547563444
 23
4.000000000000002
 33
0
  0
MTEXT
  5
D0
100
AcDbEntity
  8
Dimensions2
  6
CONTINUOUS
 62
    0
370
   -2
100
AcDbMText
 10
-12.54999999999999
 20
20
 30
0
 40
5
 41
19.16666666666698
 71
    5
 72
    1
  1
1,5748
  7
standard
210
0
220
0
230
1
 50
90
 73
    2
 44
1
  0
LINE
  5
D1
100
AcDbEntity
  8
Dimensions2
  6
ByBlock
 62
    0
370
   -2
100
AcDbLine
 10
83.75
 20
40
 11
-10.09999999999999
 21
40
  0
LINE
  5
D2
100
AcDbEntity
  8
Dimensions2
  6
ByBlock
 62
    0
370
   -2
100
AcDbLine
 10
29.75000000000022
 20
1.530808498934192e-16
 11
-10.09999999999999
 21
2.197165380453792e-15
  0
ENDBLK
  5
69
330
67
100
AcDbEntity
  8
0
100
AcDbBlockEnd
  0
BLOCK
  5
6B
330
6A
100
AcDbEntity
  8
0
100
AcDbBlockBegin
  2
*D20
 70
    1
 10
0
 20
0
  3
*D20
  1

  0
LINE
  5
D3
100
AcDbEntity
  8
Dimensions
  6
ByBlock
 62
    0
370
   -2
100
AcDbLine
 10
40
 20
17.398
 11
40
 21
-8
  0
SOLID
  5
D4
100
AcDbEntity
  8
Dimensions
  6
ByBlock
 62
    0
370
   -2
100
AcDbTrace
 10
40
 20
9.397999999999998
 30
0
 11
39.33394454756345
 21
13.398
 31
0
 12
40.66605545243655
 22
13.398
 32
0
 13
40.66605545243655
 23
13.398
 33
0
  0
SOLID
  5
D5
100
AcDbEntity
  8
Dimensions
  6
ByBlock
 62
    0
370
   -2
100
AcDbTrace
 10
40
 20
-9.094947016928515e-17
 30
0
 11
40.66605545243655
 21
-4
 31
0
 12
39.33394454756345
 22
-4
 32
0
 13
39.33394454756345
 23
-4
 33
0
  0
MTEXT
  5
D6
100
AcDbEntity
  8
Dimensions
  6
CONTINUOUS
 62
    0
370
   -2
100
AcDbMText
 10
37.45
 20
15.42022222222237
 30
0
 40
5
 41
11.94444444444476
 71
    5
 72
    1
  1
0,37
  7
standard
210
0
220
0
230
1
 50
90
 73
    2
 44
1
  0
LINE
  5
D7
100
AcDbEntity
  8
Dimensions
  6
ByBlock
 62
    0
370
   -2
100
AcDbLine
 10
23.01000000006334
 20
9.398
 11
40.1
 21
9.397999999999998
  0
LINE
  5
D8
100
AcDbEntity
  8
Dimensions
  6
ByBlock
 62
    0
370
   -2
100
AcDbLine
 10
39.9700000001127
 20
0
 11
40.1
 21
-9.094947016928515e-17
  0
ENDBLK
  5
6C
330
6A
100
AcDbEntity
  8
0
100
AcDbBlockEnd
  0
BLOCK
  5
6E
330
6D
100
AcDbEntity
  8
0
100
AcDbBlockBegin
  2
*D26
 70
    1
 10
0
 20
0
  3
*D26
  1

  0
LINE
  5
D9
100
AcDbEntity
  8
Dimensions3
  6
ByBlock
 62
    0
370
   -2
100
AcDbLine
 10
80
 20
0
 11
80
 21
22
  0
SOLID
  5
DA
100
AcDbEntity
  8
Dimensions3
  6
ByBlock
 62
    0
370
   -2
100
AcDbTrace
 10
80
 20
0
 30
0
 11
79.33394454756346
 21
4
 31
0
 12
80.66605545243655
 22
4
 32
0
 13
80.66605545243655
 23
4
 33
0
  0
SOLID
  5
DB
100
AcDbEntity
  8
Dimensions3
  6
ByBlock
 62
    0
370
   -2
100
AcDbTrace
 10
80
 20
22
 30
0
 11
80.66605545243654
 21
18
 31
0
 12
79.33394454756346
 22
18
 32
0
 13
79.33394454756346
 23
18
 33
0
  0
MTEXT
  5
DC
100
AcDbEntity
  8
Dimensions3
  6
CONTINUOUS
 62
    0
370
   -2
100
AcDbMText
 10
77.45
 20
11
 30
0
 40
5
 41
18.61111111111173
 71
    5
 72
    1
  1
0,8661
  7
standard
210
0
220
0
230
1
 50
90
 73
    2
 44
1
  0
LINE
  5
DD
100
AcDbEntity
  8
Dimensions3
  6
ByBlock
 62
    0
370
   -2
100
AcDbLine
 10
68.29000000019514
 20
0
 11
80.09999999999999
 21
0
  0
LINE
  5
DE
100
AcDbEntity
  8
Dimensions3
  6
ByBlock
 62
    0
370
   -2
100
AcDbLine
 10
68.61000000019607
 20
22
 11
80.09999999999999
 21
22
  0
ENDBLK
  5
6F
330
6D
100
AcDbEntity
  8
0
100
AcDbBlockEnd
  0
BLOCK
  5
71
330
70
100
AcDbEntity
  8
0
100
AcDbBlockBegin
  2
*D19
 70
    1
 10
0
 20
0
  3
*D19
  1

  0
LINE
  5
DF
100
AcDbEntity
  8
Dimensions
  6
ByBlock
 62
    0
370
   -2
100
AcDbLine
 10
80
 20
18.399
 11
80
 21
4.930380657631324e-32
  0
SOLID
  5
E0
100
AcDbEntity
  8
Dimensions
  6
ByBlock
 62
    0
370
   -2
100
AcDbTrace
 10
80
 20
18.399
 30
0
 11
80.66605545243654
 21
14.399
 31
0
 12
79.33394454756346
 22
14.399
 32
0
 13
79.33394454756346
 23
14.399
 33
0
  0
SOLID
  5
E1
100
AcDbEntity
  8
Dimensions
  6
ByBlock
 62
    0
370
   -2
100
AcDbTrace
 10
80
 20
4.930380657631324e-32
 30
0
 11
79.33394454756346
 21
4
 31
0
 12
80.66605545243655
 22
4
 32
0
 13
80.66605545243655
 23
4
 33
0
  0
MTEXT
  5
E2
100
AcDbEntity
  8
Dimensions
  6
CONTINUOUS
 62
    0
370
   -2
100
AcDbMText
 10
77.45
 20
28.86566666666667
 30
0
 40
5
 41
20.83333333333334
 71
    5
 72
    1
  1
0,7244
  7
standard
210
0
220
0
230
1
 50
90
 73
    2
 44
1
  0
LINE
  5
E3
100
AcDbEntity
  8
Dimensions
  6
ByBlock
 62
    0
370
   -2
100
AcDbLine
 10
63.65000000018163
 20
18.399
 11
80.09999999999999
 21
18.399
  0
LINE
  5
E4
100
AcDbEntity
  8
Dimensions
  6
ByBlock
 62
    0
370
   -2
100
AcDbLine
 10
78.53000000022493
 20
0
 11
80.09999999999999
 21
4.930380657631324e-32
  0
ENDBLK
  5
72
330
70
100
AcDbEntity
  8
0
100
AcDbBlockEnd
  0
BLOCK
  5
74
330
73
100
AcDbEntity
  8
0
100
AcDbBlockBegin
  2
*D12
 70
    1
 10
0
 20
0
  3
*D12
  1

  0
LINE
  5
E5
100
AcDbEntity
  8
Dimensions
  6
ByBlock
 62
    0
370
   -2
100
AcDbLine
 10
169.8
 20
-40
 11
84.684
 21
-40
  0
SOLID
  5
E6
100
AcDbEntity
  8
Dimensions
  6
ByBlock
 62
    0
370
   -2
100
AcDbTrace
 10
169.8
 20
-40
 30
0
 11
165.8
 21
-40.66605545243655
 31
0
 12
165.8
 22
-39.33394454756345
 32
0
 13
165.8
 23
-39.33394454756345
 33
0
  0
SOLID
  5
E7
100
AcDbEntity
  8
Dimensions
  6
ByBlock
 62
    0
370
   -2
100
AcDbTrace
 10
84.684
 20
-40
 30
0
 11
88.684
 21
-39.33394454756345
 31
0
 12
88.684
 22
-40.66605545243655
 32
0
 13
88.684
 23
-40.66605545243655
 33
0
  0
MTEXT
  5
E8
100
AcDbEntity
  8
Dimensions
  6
CONTINUOUS
 62
    0
370
   -2
100
AcDbMText
 10
127.242
 20
-37.45
 30
0
 40
5
 41
14.72222222222315
 71
    5
 72
    1
  1
3,351
  7
standard
210
0
220
0
230
1
 50
360
 73
    2
 44
1
  0
LINE
  5
E9
100
AcDbEntity
  8
Dimensions
  6
ByBlock
 62
    0
370
   -2
100
AcDbLine
 10
169.8
 20
4.894000000015785
 11
169.8
 21
-40.1
  0
LINE
  5
EA
100
AcDbEntity
  8
Dimensions
  6
ByBlock
 62
    0
370
   -2
100
AcDbLine
 10
84.684
 20
11.93400000003387
 11
84.684
 21
-40.1
  0
ENDBLK
  5
75
330
73
100
AcDbEntity
  8
0
100
AcDbBlockEnd
  0
BLOCK
  5
77
330
76
100
AcDbEntity
  8
0
100
AcDbBlockBegin
  2
*D27
 70
    1
 10
0
 20
0
  3
*D27
  1

  0
LINE
  5
EB
100
AcDbEntity
  8
Dimensions3
  6
ByBlock
 62
    0
370
   -2
100
AcDbLine
 10
50
 20
0
 11
50
 21
31
  0
SOLID
  5
EC
100
AcDbEntity
  8
Dimensions3
  6
ByBlock
 62
    0
370
   -2
100
AcDbTrace
 10
50
 20
0
 30
0
 11
49.33394454756345
 21
4
 31
0
 12
50.66605545243655
 22
4
 32
0
 13
50.66605545243655
 23
4
 33
0
  0
SOLID
  5
ED
100
AcDbEntity
  8
Dimensions3
  6
ByBlock
 62
    0
370
   -2
100
AcDbTrace
 10
50
 20
31
 30
0
 11
50.66605545243655
 21
27
 31
0
 12
49.33394454756345
 22
27
 32
0
 13
49.33394454756345
 23
27
 33
0
  0
MTEXT
  5
EE
100
AcDbEntity
  8
Dimensions3
  6
CONTINUOUS
 62
    0
370
   -2
100
AcDbMText
 10
47.45
 20
15.5
 30
0
 40
5
 41
18.61111111111142
 71
    5
 72
    1
  1
1,2205
  7
standard
210
0
220
0
230
1
 50
90
 73
    2
 44
1
  0
LINE
  5
EF
100
AcDbEntity
  8
Dimensions3
  6
ByBlock
 62
    0
370
   -2
100
AcDbLine
 10
48.45000000013739
 20
0
 11
50.1
 21
0
  0
LINE
  5
F0
100
AcDbEntity
  8
Dimensions3
  6
ByBlock
 62
    0
370
   -2
100
AcDbLine
 10
51.87000000015462
 20
31
 11
49.9
 21
31
  0
ENDBLK
  5
78
330
76
100
AcDbEntity
  8
0
100
AcDbBlockEnd
  0
BLOCK
  5
7A
330
79
100
AcDbEntity
  8
0
100
AcDbBlockBegin
  2
*D18
 70
    1
 10
0
 20
0
  3
*D18
  1

  0
LINE
  5
F1
100
AcDbEntity
  8
Dimensions
  6
ByBlock
 62
    0
370
   -2
100
AcDbLine
 10
110
 20
-8
 11
110
 21
17.398
  0
SOLID
  5
F2
100
AcDbEntity
  8
Dimensions
  6
ByBlock
 62
    0
370
   -2
100
AcDbTrace
 10
110
 20
0
 30
0
 11
110.6660554524365
 21
-4
 31
0
 12
109.3339445475635
 22
-4
 32
0
 13
109.3339445475635
 23
-4
 33
0
  0
SOLID
  5
F3
100
AcDbEntity
  8
Dimensions
  6
ByBlock
 62
    0
370
   -2
100
AcDbTrace
 10
110
 20
9.398
 30
0
 11
109.3339445475635
 21
13.398
 31
0
 12
110.6660554524366
 22
13.398
 32
0
 13
110.6660554524366
 23
13.398
 33
0
  0
MTEXT
  5
F4
100
AcDbEntity
  8
Dimensions
  6
CONTINUOUS
 62
    0
370
   -2
100
AcDbMText
 10
107.45
 20
15.42022222222238
 30
0
 40
5
 41
11.94444444444476
 71
    5
 72
    1
  1
0,37
  7
standard
210
0
220
0
230
1
 50
90
 73
    2
 44
1
  0
LINE
  5
F5
100
AcDbEntity
  8
Dimensions
  6
ByBlock
 62
    0
370
   -2
100
AcDbLine
 10
93.51240000026854
 20
0
 11
110.1
 21
0
  0
LINE
  5
F6
100
AcDbEntity
  8
Dimensions
  6
ByBlock
 62
    0
370
   -2
100
AcDbLine
 10
93.61480000026883
 20
9.398
 11
110.1
 21
9.398
  0
ENDBLK
  5
7B
330
79
100
AcDbEntity
  8
0
100
AcDbBlockEnd
  0
BLOCK
  5
7D
330
7C
100
AcDbEntity
  8
0
100
AcDbBlockBegin
  2
*D10
 70
    1
 10
0
 20
0
  3
*D10
  1

  0
LINE
  5
F7
100
AcDbEntity
  8
Dimensions
  6
ByBlock
 62
    0
370
   -2
100
AcDbLine
 10
169.8
 20
-20
 11
119.634
 21
-20
  0
SOLID
  5
F8
100
AcDbEntity
  8
Dimensions
  6
ByBlock
 62
    0
370
   -2
100
AcDbTrace
 10
169.8
 20
-20
 30
0
 11
165.8
 21
-20.66605545243655
 31
0
 12
165.8
 22
-19.33394454756345
 32
0
 13
165.8
 23
-19.33394454756345
 33
0
  0
SOLID
  5
F9
100
AcDbEntity
  8
Dimensions
  6
ByBlock
 62
    0
370
   -2
100
AcDbTrace
 10
119.634
 20
-20
 30
0
 11
123.634
 21
-19.33394454756345
 31
0
 12
123.634
 22
-20.66605545243655
 32
0
 13
123.634
 23
-20.66605545243655
 33
0
  0
MTEXT
  5
FA
100
AcDbEntity
  8
Dimensions
  6
CONTINUOUS
 62
    0
370
   -2
100
AcDbMText
 10
144.717
 20
-17.45
 30
0
 40
5
 41
14.72222222222253
 71
    5
 72
    1
  1
1,975
  7
standard
210
0
220
0
230
1
 50
360
 73
    2
 44
1
  0
LINE
  5
FB
100
AcDbEntity
  8
Dimensions
  6
ByBlock
 62
    0
370
   -2
100
AcDbLine
 10
169.8
 20
6.634800000018035
 11
169.8
 21
-20.1
  0
LINE
  5
FC
100
AcDbEntity
  8
Dimensions
  6
ByBlock
 62
    0
370
   -2
100
AcDbLine
 10
119.634
 20
21.651
 11
119.634
 21
-20.1
  0
ENDBLK
  5
7E
330
7C
100
AcDbEntity
  8
0
100
AcDbBlockEnd
  0
BLOCK
  5
80
330
7F
100
AcDbEntity
  8
0
100
AcDbBlockBegin
  2
*D25
 70
    1
 10
0
 20
0
  3
*D25
  1

  0
LINE
  5
FD
100
AcDbEntity
  8
Dimensions3
  6
ByBlock
 62
    0
370
   -2
100
AcDbLine
 10
169.8
 20
-40
 11
52.07
 21
-40
  0
SOLID
  5
FE
100
AcDbEntity
  8
Dimensions3
  6
ByBlock
 62
    0
370
   -2
100
AcDbTrace
 10
169.8
 20
-40
 30
0
 11
165.8
 21
-40.66605545243655
 31
0
 12
165.8
 22
-39.33394454756345
 32
0
 13
165.8
 23
-39.33394454756345
 33
0
  0
SOLID
  5
FF
100
AcDbEntity
  8
Dimensions3
  6
ByBlock
 62
    0
370
   -2
100
AcDbTrace
 10
52.07
 20
-40
 30
0
 11
56.07
 21
-39.33394454756345
 31
0
 12
56.07
 22
-40.66605545243655
 32
0
 13
56.07
 23
-40.66605545243655
 33
0
  0
MTEXT
  5
100
100
AcDbEntity
  8
Dimensions3
  6
CONTINUOUS
 62
    0
370
   -2
100
AcDbMText
 10
110.935
 20
-37.45
 30
0
 40
5
 41
16.38888888888982
 71
    5
 72
    1
  1
4,635
  7
standard
210
0
220
0
230
1
 50
360
 73
    2
 44
1
  0
LINE
  5
101
100
AcDbEntity
  8
Dimensions3
  6
ByBlock
 62
    0
370
   -2
100
AcDbLine
 10
169.8
 20
7.39000000002515
 11
169.8
 21
-40.1
  0
LINE
  5
102
100
AcDbEntity
  8
Dimensions3
  6
ByBlock
 62
    0
370
   -2
100
AcDbLine
 10
52.07
 20
22.43000000006893
 11
52.07
 21
-40.1
  0
ENDBLK
  5
81
330
7F
100
AcDbEntity
  8
0
100
AcDbBlockEnd
  0
BLOCK
  5
83
330
82
100
AcDbEntity
  8
0
100
AcDbBlockBegin
  2
*D24
 70
    1
 10
0
 20
0
  3
*D24
  1

  0
LINE
  5
103
100
AcDbEntity
  8
Dimensions3
  6
ByBlock
 62
    0
370
   -2
100
AcDbLine
 10
169.8
 20
-29.99999999999999
 11
56.134
 21
-29.99999999999999
  0
SOLID
  5
104
100
AcDbEntity
  8
Dimensions3
  6
ByBlock
 62
    0
370
   -2
100
AcDbTrace
 10
169.8
 20
-29.99999999999999
 30
0
 11
165.8
 21
-30.66605545243653
 31
0
 12
165.8
 22
-29.33394454756344
 32
0
 13
165.8
 23
-29.33394454756344
 33
0
  0
SOLID
  5
105
100
AcDbEntity
  8
Dimensions3
  6
ByBlock
 62
    0
370
   -2
100
AcDbTrace
 10
56.134
 20
-29.99999999999999
 30
0
 11
60.134
 21
-29.33394454756344
 31
0
 12
60.134
 22
-30.66605545243653
 32
0
 13
60.134
 23
-30.66605545243653
 33
0
  0
MTEXT
  5
106
100
AcDbEntity
  8
Dimensions3
  6
CONTINUOUS
 62
    0
370
   -2
100
AcDbMText
 10
112.967
 20
-27.44999999999999
 30
0
 40
5
 41
16.94444444444476
 71
    5
 72
    1
  1
4,475
  7
standard
210
0
220
0
230
1
 50
360
 73
    2
 44
1
  0
LINE
  5
107
100
AcDbEntity
  8
Dimensions3
  6
ByBlock
 62
    0
370
   -2
100
AcDbLine
 10
169.8
 20
10.75000000003493
 11
169.8
 21
-30.09999999999999
  0
LINE
  5
108
100
AcDbEntity
  8
Dimensions3
  6
ByBlock
 62
    0
370
   -2
100
AcDbLine
 10
56.134
 20
26.27000000008011
 11
56.134
 21
-30.09999999999999
  0
ENDBLK
  5
84
330
82
100
AcDbEntity
  8
0
100
AcDbBlockEnd
  0
BLOCK
  5
86
330
85
100
AcDbEntity
  8
0
100
AcDbBlockBegin
  2
*D11
 70
    1
 10
0
 20
0
  3
*D11
  1

  0
LINE
  5
109
100
AcDbEntity
  8
Dimensions
  6
ByBlock
 62
    0
370
   -2
100
AcDbLine
 10
169.8
 20
-30
 11
98.70399999999999
 21
-30
  0
SOLID
  5
10A
100
AcDbEntity
  8
Dimensions
  6
ByBlock
 62
    0
370
   -2
100
AcDbTrace
 10
169.8
 20
-30
 30
0
 11
165.8
 21
-30.66605545243655
 31
0
 12
165.8
 22
-29.33394454756345
 32
0
 13
165.8
 23
-29.33394454756345
 33
0
  0
SOLID
  5
10B
100
AcDbEntity
  8
Dimensions
  6
ByBlock
 62
    0
370
   -2
100
AcDbTrace
 10
98.70399999999999
 20
-30
 30
0
 11
102.704
 21
-29.33394454756345
 31
0
 12
102.704
 22
-30.66605545243655
 32
0
 13
102.704
 23
-30.66605545243655
 33
0
  0
MTEXT
  5
10C
100
AcDbEntity
  8
Dimensions
  6
CONTINUOUS
 62
    0
370
   -2
100
AcDbMText
 10
134.252
 20
-27.45
 30
0
 40
5
 41
18.61111111111111
 71
    5
 72
    1
  1
2,7991
  7
standard
210
0
220
0
230
1
 50
360
 73
    2
 44
1
  0
LINE
  5
10D
100
AcDbEntity
  8
Dimensions
  6
ByBlock
 62
    0
370
   -2
100
AcDbLine
 10
169.8
 20
10.52600000003025
 11
169.8
 21
-30.1
  0
LINE
  5
10E
100
AcDbEntity
  8
Dimensions
  6
ByBlock
 62
    0
370
   -2
100
AcDbLine
 10
98.70399999999999
 20
11.93400000003387
 11
98.70399999999999
 21
-30.1
  0
ENDBLK
  5
87
330
85
100
AcDbEntity
  8
0
100
AcDbBlockEnd
  0
BLOCK
  5
89
330
88
100
AcDbEntity
  8
0
100
AcDbBlockBegin
  2
*D28
 70
    1
 10
0
 20
0
  3
*D28
  1

  0
LINE
  5
10F
100
AcDbEntity
  8
Dimensions3
  6
ByBlock
 62
    0
370
   -2
100
AcDbLine
 10
40
 20
36
 11
40
 21
2.046363079077771e-16
  0
SOLID
  5
110
100
AcDbEntity
  8
Dimensions3
  6
ByBlock
 62
    0
370
   -2
100
AcDbTrace
 10
40
 20
36
 30
0
 11
40.66605545243655
 21
32
 31
0
 12
39.33394454756345
 22
32
 32
0
 13
39.33394454756345
 23
32
 33
0
  0
SOLID
  5
111
100
AcDbEntity
  8
Dimensions3
  6
ByBlock
 62
    0
370
   -2
100
AcDbTrace
 10
40
 20
2.046363079077771e-16
 30
0
 11
39.33394454756345
 21
4
 31
0
 12
40.66605545243655
 22
4
 32
0
 13
40.66605545243655
 23
4
 33
0
  0
MTEXT
  5
112
100
AcDbEntity
  8
Dimensions3
  6
CONTINUOUS
 62
    0
370
   -2
100
AcDbMText
 10
37.45
 20
18
 30
0
 40
5
 41
18.05555555555587
 71
    5
 72
    1
  1
1,4173
  7
standard
210
0
220
0
230
1
 50
90
 73
    2
 44
1
  0
LINE
  5
113
100
AcDbEntity
  8
Dimensions3
  6
ByBlock
 62
    0
370
   -2
100
AcDbLine
 10
63.87000000018955
 20
36
 11
39.9
 21
36
  0
LINE
  5
114
100
AcDbEntity
  8
Dimensions3
  6
ByBlock
 62
    0
370
   -2
100
AcDbLine
 10
41.63000000012481
 20
1.530808498934192e-16
 11
39.9
 21
2.168827758992507e-16
  0
ENDBLK
  5
8A
330
88
100
AcDbEntity
  8
0
100
AcDbBlockEnd
  0
BLOCK
  5
8C
330
8B
100
AcDbEntity
  8
0
100
AcDbBlockBegin
  2
*D8
 70
    1
 10
0
 20
0
  3
*D8
  1

  0
LINE
  5
115
100
AcDbEntity
  8
Dimensions2
  6
ByBlock
 62
    0
370
   -2
100
AcDbLine
 10
169.8
 20
-30
 11
85
 21
-30
  0
SOLID
  5
116
100
AcDbEntity
  8
Dimensions2
  6
ByBlock
 62
    0
370
   -2
100
AcDbTrace
 10
169.8
 20
-30
 30
0
 11
165.8
 21
-30.66605545243655
 31
0
 12
165.8
 22
-29.33394454756345
 32
0
 13
165.8
 23
-29.33394454756345
 33
0
  0
SOLID
  5
117
100
AcDbEntity
  8
Dimensions2
  6
ByBlock
 62
    0
370
   -2
100
AcDbTrace
 10
85
 20
-30
 30
0
 11
89
 21
-29.33394454756345
 31
0
 12
89
 22
-30.66605545243655
 32
0
 13
89
 23
-30.66605545243655
 33
0
  0
MTEXT
  5
118
100
AcDbEntity
  8
Dimensions2
  6
CONTINUOUS
 62
    0
370
   -2
100
AcDbMText
 10
127.4
 20
-27.45
 30
0
 40
5
 41
19.72222222222346
 71
    5
 72
    1
  1
3,3386
  7
standard
210
0
220
0
230
1
 50
360
 73
    2
 44
1
  0
LINE
  5
119
100
AcDbEntity
  8
Dimensions2
  6
ByBlock
 62
    0
370
   -2
100
AcDbLine
 10
169.8
 20
18.27000000001545
 11
169.8
 21
-30.1
  0
LINE
  5
11A
100
AcDbEntity
  8
Dimensions2
  6
ByBlock
 62
    0
370
   -2
100
AcDbLine
 10
85
 20
38.75
 11
85
 21
-30.1
  0
ENDBLK
  5
8D
330
8B
100
AcDbEntity
  8
0
100
AcDbBlockEnd
  0
BLOCK
  5
8F
330
8E
100
AcDbEntity
  8
0
100
AcDbBlockBegin
  2
*D9
 70
    1
 10
0
 20
0
  3
*D9
  1

  0
LINE
  5
11B
100
AcDbEntity
  8
Dimensions
  6
ByBlock
 62
    0
370
   -2
100
AcDbLine
 10
169.8
 20
-10
 11
152.654
 21
-10
  0
SOLID
  5
11C
100
AcDbEntity
  8
Dimensions
  6
ByBlock
 62
    0
370
   -2
100
AcDbTrace
 10
169.8
 20
-10
 30
0
 11
165.8
 21
-10.66605545243655
 31
0
 12
165.8
 22
-9.333944547563455
 32
0
 13
165.8
 23
-9.333944547563455
 33
0
  0
SOLID
  5
11D
100
AcDbEntity
  8
Dimensions
  6
ByBlock
 62
    0
370
   -2
100
AcDbTrace
 10
152.654
 20
-10
 30
0
 11
156.654
 21
-9.333944547563455
 31
0
 12
156.654
 22
-10.66605545243655
 32
0
 13
156.654
 23
-10.66605545243655
 33
0
  0
MTEXT
  5
11E
100
AcDbEntity
  8
Dimensions
  6
CONTINUOUS
 62
    0
370
   -2
100
AcDbMText
 10
161.227
 20
-7.45
 30
0
 40
5
 41
15.83333333333396
 71
    5
 72
    1
  1
0,675
  7
standard
210
0
220
0
230
1
 50
360
 73
    2
 44
1
  0
LINE
  5
11F
100
AcDbEntity
  8
Dimensions
  6
ByBlock
 62
    0
370
   -2
100
AcDbLine
 10
169.8
 20
17.7900000000151
 11
169.8
 21
-10.1
  0
LINE
  5
120
100
AcDbEntity
  8
Dimensions
  6
ByBlock
 62
    0
370
   -2
100
AcDbLine
 10
152.654
 20
21.6598
 11
152.654
 21
-10.1
  0
ENDBLK
  5
90
330
8E
100
AcDbEntity
  8
0
100
AcDbBlockEnd
  0
BLOCK
  5
92
330
91
100
AcDbEntity
  8
0
100
AcDbBlockBegin
  2
*D14
 70
    1
 10
0
 20
0
  3
*D14
  1

  0
LINE
  5
121
100
AcDbEntity
  8
Dimensions
  6
ByBlock
 62
    0
370
   -2
100
AcDbLine
 10
169.8
 20
70
 11
52.807
 21
70
  0
SOLID
  5
122
100
AcDbEntity
  8
Dimensions
  6
ByBlock
 62
    0
370
   -2
100
AcDbTrace
 10
169.8
 20
70
 30
0
 11
165.8
 21
69.33394454756346
 31
0
 12
165.8
 22
70.66605545243654
 32
0
 13
165.8
 23
70.66605545243654
 33
0
  0
SOLID
  5
123
100
AcDbEntity
  8
Dimensions
  6
ByBlock
 62
    0
370
   -2
100
AcDbTrace
 10
52.807
 20
70
 30
0
 11
56.807
 21
70.66605545243654
 31
0
 12
56.807
 22
69.33394454756345
 32
0
 13
56.807
 23
69.33394454756345
 33
0
  0
MTEXT
  5
124
100
AcDbEntity
  8
Dimensions
  6
CONTINUOUS
 62
    0
370
   -2
100
AcDbMText
 10
111.3035
 20
72.55
 30
0
 40
5
 41
16.38888888888951
 71
    5
 72
    1
  1
4,606
  7
standard
210
0
220
0
230
1
 50
360
 73
    2
 44
1
  0
LINE
  5
125
100
AcDbEntity
  8
Dimensions
  6
ByBlock
 62
    0
370
   -2
100
AcDbLine
 10
169.8
 20
8.930000000019731
 11
169.8
 21
70.09999999999999
  0
LINE
  5
126
100
AcDbEntity
  8
Dimensions
  6
ByBlock
 62
    0
370
   -2
100
AcDbLine
 10
52.807
 20
14.05000000003289
 11
52.807
 21
70.09999999999999
  0
ENDBLK
  5
93
330
91
100
AcDbEntity
  8
0
100
AcDbBlockEnd
  0
BLOCK
  5
95
330
94
100
AcDbEntity
  8
0
100
AcDbBlockBegin
  2
*D1
 70
    1
 10
0
 20
0
  3
*D1
  1

  0
SOLID
  5
127
100
AcDbEntity
  8
Dimensions2
  6
ByBlock
 62
    0
370
   -2
100
AcDbTrace
 10
91.73960738413653
 20
44.49307158942435
 30
0
 11
94.69834747132447
 21
47.26606400957042
 31
0
 12
95.43726965165135
 22
46.15768073908011
 32
0
 13
95.43726965165135
 23
46.15768073908011
 33
0
  0
LINE
  5
128
100
AcDbEntity
  8
Dimensions2
  6
ByBlock
 62
    0
370
   -2
100
AcDbLine
 10
85
 20
40
 11
113.8813902167939
 21
59.25426014452923
  0
MTEXT
  5
129
100
AcDbEntity
  8
Dimensions2
  6
CONTINUOUS
 62
    0
370
   -2
100
AcDbMText
 10
101.3960133000909
 20
53.9953941175383
 30
0
 40
5
 41
18.61111111111142
 71
    5
 72
    1
  1
0,3189
  7
standard
210
0
220
0
230
1
 50
33.69006752597978
 73
    2
 44
1
  0
ENDBLK
  5
96
330
94
100
AcDbEntity
  8
0
100
AcDbBlockEnd
  0
BLOCK
  5
98
330
97
100
AcDbEntity
  8
0
100
AcDbBlockBegin
  2
*D16
 70
    1
 10
0
 20
0
  3
*D16
  1

  0
LINE
  5
12A
100
AcDbEntity
  8
Dimensions
  6
ByBlock
 62
    0
370
   -2
100
AcDbLine
 10
169.8
 20
90
 11
20
 21
90
  0
SOLID
  5
12B
100
AcDbEntity
  8
Dimensions
  6
ByBlock
 62
    0
370
   -2
100
AcDbTrace
 10
169.8
 20
90
 30
0
 11
165.8
 21
89.33394454756346
 31
0
 12
165.8
 22
90.66605545243654
 32
0
 13
165.8
 23
90.66605545243654
 33
0
  0
SOLID
  5
12C
100
AcDbEntity
  8
Dimensions
  6
ByBlock
 62
    0
370
   -2
100
AcDbTrace
 10
20
 20
90
 30
0
 11
24
 21
90.66605545243654
 31
0
 12
24
 22
89.33394454756345
 32
0
 13
24
 23
89.33394454756345
 33
0
  0
MTEXT
  5
12D
100
AcDbEntity
  8
Dimensions
  6
CONTINUOUS
 62
    0
370
   -2
100
AcDbMText
 10
94.90000000000001
 20
92.55
 30
0
 40
5
 41
19.72222222222285
 71
    5
 72
    1
  1
5,8976
  7
standard
210
0
220
0
230
1
 50
360
 73
    2
 44
1
  0
LINE
  5
12E
100
AcDbEntity
  8
Dimensions
  6
ByBlock
 62
    0
370
   -2
100
AcDbLine
 10
169.8
 20
12.29000000002837
 11
169.8
 21
90.09999999999999
  0
LINE
  5
12F
100
AcDbEntity
  8
Dimensions
  6
ByBlock
 62
    0
370
   -2
100
AcDbLine
 10
20
 20
15.01000000003535
 11
20
 21
90.09999999999999
  0
ENDBLK
  5
99
330
97
100
AcDbEntity
  8
0
100
AcDbBlockEnd
  0
BLOCK
  5
9B
330
9A
100
AcDbEntity
  8
0
100
AcDbBlockBegin
  2
*D2
 70
    1
 10
0
 20
0
  3
*D2
  1

  0
SOLID
  5
130
100
AcDbEntity
  8
Dimensions2
  6
ByBlock
 62
    0
370
   -2
100
AcDbTrace
 10
116.4378108950435
 20
44.9157492694053
 30
0
 11
119.212759287201
 21
47.87265496397573
 31
0
 12
120.0211942510771
 22
46.81390458165495
 32
0
 13
120.0211942510771
 23
46.81390458165495
 33
0
  0
LINE
  5
131
100
AcDbEntity
  8
Dimensions2
  6
ByBlock
 62
    0
370
   -2
100
AcDbLine
 10
110
 20
40
 11
137.5880949740962
 21
61.06557025736947
  0
MTEXT
  5
132
100
AcDbEntity
  8
Dimensions2
  6
CONTINUOUS
 62
    0
370
   -2
100
AcDbMText
 10
125.4654022386459
 20
55.01737800812331
 30
0
 40
5
 41
18.61111111111142
 71
    5
 72
    1
  1
0,3189
  7
standard
210
0
220
0
230
1
 50
37.36443623960398
 73
    2
 44
1
  0
ENDBLK
  5
9C
330
9A
100
AcDbEntity
  8
0
100
AcDbBlockEnd
  0
BLOCK
  5
9E
330
9D
100
AcDbEntity
  8
0
100
AcDbBlockBegin
  2
*D3
 70
    1
 10
0
 20
0
  3
*D3
  1

  0
SOLID
  5
133
100
AcDbEntity
  8
Dimensions2
  6
ByBlock
 62
    0
370
   -2
100
AcDbTrace
 10
144.48
 20
45.86
 30
0
 11
147.2803667285381
 21
48.79284436194924
 31
0
 12
148.0796332714619
 22
47.72715563805077
 32
0
 13
148.0796332714619
 23
47.72715563805077
 33
0
  0
LINE
  5
134
100
AcDbEntity
  8
Dimensions2
  6
ByBlock
 62
    0
370
   -2
100
AcDbLine
 10
138
 20
41
 11
165.7688888888891
 21
61.82666666666687
  0
MTEXT
  5
135
100
AcDbEntity
  8
Dimensions2
  6
CONTINUOUS
 62
    0
370
   -2
100
AcDbMText
 10
153.5944444444445
 20
55.88333333333343
 30
0
 40
5
 41
18.61111111111142
 71
    5
 72
    1
  1
0,3189
  7
standard
210
0
220
0
230
1
 50
36.86989764584406
 73
    2
 44
1
  0
ENDBLK
  5
9F
330
9D
100
AcDbEntity
  8
0
100
AcDbBlockEnd
  0
BLOCK
  5
A1
330
A0
100
AcDbEntity
  8
0
100
AcDbBlockBegin
  2
*D21
 70
    1
 10
0
 20
0
  3
*D21
  1

  0
LINE
  5
136
100
AcDbEntity
  8
Dimensions
  6
ByBlock
 62
    0
370
   -2
100
AcDbLine
 10
9.999999999999998
 20
0
 11
9.999999999999998
 21
14.91
  0
SOLID
  5
137
100
AcDbEntity
  8
Dimensions
  6
ByBlock
 62
    0
370
   -2
100
AcDbTrace
 10
9.999999999999998
 20
0
 30
0
 11
9.333944547563455
 21
4
 31
0
 12
10.66605545243654
 22
4
 32
0
 13
10.66605545243654
 23
4
 33
0
  0
SOLID
  5
138
100
AcDbEntity
  8
Dimensions
  6
ByBlock
 62
    0
370
   -2
100
AcDbTrace
 10
9.999999999999998
 20
14.91
 30
0
 11
10.66605545243654
 21
10.91
 31
0
 12
9.333944547563453
 22
10.91
 32
0
 13
9.333944547563453
 23
10.91
 33
0
  0
MTEXT
  5
139
100
AcDbEntity
  8
Dimensions
  6
CONTINUOUS
 62
    0
370
   -2
100
AcDbMText
 10
7.449999999999999
 20
22.87666666666682
 30
0
 40
5
 41
15.83333333333365
 71
    5
 72
    1
  1
0,587
  7
standard
210
0
220
0
230
1
 50
90
 73
    2
 44
1
  0
LINE
  5
13A
100
AcDbEntity
  8
Dimensions
  6
ByBlock
 62
    0
370
   -2
100
AcDbLine
 10
26.91000000008197
 20
1.530808498934192e-16
 11
9.899999999999999
 21
1.224646799147353e-17
  0
LINE
  5
13B
100
AcDbEntity
  8
Dimensions
  6
ByBlock
 62
    0
370
   -2
100
AcDbLine
 10
20.35000000006287
 20
14.91
 11
9.899999999999999
 21
14.91
  0
ENDBLK
  5
A2
330
A0
100
AcDbEntity
  8
0
100
AcDbBlockEnd
  0
BLOCK
  5
A4
330
A3
100
AcDbEntity
  8
0
100
AcDbBlockBegin
  2
*D17
 70
    1
 10
0
 20
0
  3
*D17
  1

  0
LINE
  5
13C
100
AcDbEntity
  8
Dimensions
  6
ByBlock
 62
    0
370
   -2
100
AcDbLine
 10
176
 20
3.552713678800501e-15
 11
176
 21
22.912
  0
SOLID
  5
13D
100
AcDbEntity
  8
Dimensions
  6
ByBlock
 62
    0
370
   -2
100
AcDbTrace
 10
176
 20
3.552713678800501e-15
 30
0
 11
175.3339445475634
 21
4.000000000000004
 31
0
 12
176.6660554524366
 22
4.000000000000004
 32
0
 13
176.6660554524366
 23
4.000000000000004
 33
0
  0
SOLID
  5
13E
100
AcDbEntity
  8
Dimensions
  6
ByBlock
 62
    0
370
   -2
100
AcDbTrace
 10
176
 20
22.912
 30
0
 11
176.6660554524366
 21
18.912
 31
0
 12
175.3339445475634
 22
18.912
 32
0
 13
175.3339445475634
 23
18.912
 33
0
  0
MTEXT
  5
13F
100
AcDbEntity
  8
Dimensions
  6
CONTINUOUS
 62
    0
370
   -2
100
AcDbMText
 10
173.45
 20
11.456
 30
0
 40
5
 41
15.83333333333333
 71
    5
 72
    1
  1
0,902
  7
standard
210
0
220
0
230
1
 50
90
 73
    2
 44
1
  0
LINE
  5
140
100
AcDbEntity
  8
Dimensions
  6
ByBlock
 62
    0
370
   -2
100
AcDbLine
 10
161.7300000004123
 20
5.551115123125783e-16
 11
176.1
 21
3.597122599785507e-15
  0
LINE
  5
141
100
AcDbEntity
  8
Dimensions
  6
ByBlock
 62
    0
370
   -2
100
AcDbLine
 10
153.896
 20
22.912
 11
176.1
 21
22.912
  0
ENDBLK
  5
A5
330
A3
100
AcDbEntity
  8
0
100
AcDbBlockEnd
  0
ENDSEC
  0
SECTION
  2
ENTITIES
  0
LWPOLYLINE
  5
142
100
AcDbEntity
  8
Outline
  6
ByLayer
 62
  256
370
   -1
100
AcDbPolyline
 90
    4
 70
    1
 43
0
 10
0
 20
0
 10
169.8
 20
0
 10
169.8
 20
53.5
 10
0
 20
53.5
  0
CIRCLE
  5
143
100
AcDbEntity
  8
Cuts
  6
ByLayer
 62
  256
370
   -1
100
AcDbCircle
 10
152.654
 20
22.912
 40
6.35
  0
CIRCLE
  5
144
100
AcDbEntity
  8
Cuts
  6
ByLayer
 62
  256
370
   -1
100
AcDbCircle
 10
119.634
 20
22.912
 40
6.35
  0
LWPOLYLINE
  5
145
100
AcDbEntity
  8
Cuts
  6
ByLayer
 62
  256
370
   -1
100
AcDbPolyline
 90
    4
 70
    1
 43
0
 10
98.70399999999999
 20
9.398
 10
84.684
 20
9.398
 10
84.684
 20
18.399
 10
98.70399999999999
 20
18.399
  0
LWPOLYLINE
  5
146
100
AcDbEntity
  8
Cuts
  6
ByLayer
 62
  256
370
   -1
100
AcDbPolyline
 90
    4
 70
    1
 43
0
 10
66.827
 20
9.398
 10
52.807
 20
9.398
 10
52.807
 20
18.399
 10
66.827
 20
18.399
  0
LWPOLYLINE
  5
147
100
AcDbEntity
  8
Cuts
  6
ByLayer
 62
  256
370
   -1
100
AcDbPolyline
 90
    4
 70
    1
 43
0
 10
20
 20
9.398
 10
24
 20
9.398
 10
24
 20
14.91
 10
20
 20
14.91
  0
LWPOLYLINE
  5
148
100
AcDbEntity
  8
Cuts
  6
ByLayer
 62
  256
370
   -1
100
AcDbPolyline
 90
    4
 70
    1
 43
0
 10
70.358
 20
22
 10
58.166
 20
22
 10
58.166
 20
36
 10
70.358
 20
36
  0
LWPOLYLINE
  5
149
100
AcDbEntity
  8
Cuts
  6
ByLayer
 62
  256
370
   -1
100
AcDbPolyline
 90
    4
 70
    1
 43
0
 10
56.134
 20
22
 10
52.07
 20
22
 10
52.07
 20
31
 10
56.134
 20
31
  0
CIRCLE
  5
14A
100
AcDbEntity
  8
Cuts
  6
ByLayer
 62
  256
370
   -1
100
AcDbCircle
 10
85
 20
40
 40
8.1
  0
CIRCLE
  5
14B
100
AcDbEntity
  8
Cuts
  6
ByLayer
 62
  256
370
   -1
100
AcDbCircle
 10
138
 20
41
 40
8.1
  0
CIRCLE
  5
14C
100
AcDbEntity
  8
Cuts
  6
ByLayer
 62
  256
370
   -1
100
AcDbCircle
 10
110
 20
40
 40
8.1
  0
DIMENSION
  5
14D
100
AcDbEntity
  8
Dimensions2
  6
ByLayer
 62
  256
370
   -1
100
AcDbDimension
  2
*D1
 10
85
 20
40
 30
0
 11
101.3960133000909
 21
53.9953941175383
 31
0
 70
   36
 71
    5
  3
Standard
 53
0
210
0
220
0
230
1
100
AcDbRadialDimension
 15
91.73960738413653
 25
44.49307158942435
 35
0
 40
0
  0
DIMENSION
  5
14E
100
AcDbEntity
  8
Dimensions2
  6
ByLayer
 62
  256
370
   -1
100
AcDbDimension
  2
*D2
 10
110
 20
40
 30
0
 11
125.4654022386459
 21
55.01737800812331
 31
0
 70
   36
 71
    5
  3
Standard
 53
0
210
0
220
0
230
1
100
AcDbRadialDimension
 15
116.4378108950435
 25
44.9157492694053
 35
0
 40
0
  0
DIMENSION
  5
14F
100
AcDbEntity
  8
Dimensions2
  6
ByLayer
 62
  256
370
   -1
100
AcDbDimension
  2
*D3
 10
138
 20
41
 30
0
 11
153.5944444444445
 21
55.88333333333343
 31
0
 70
   36
 71
    5
  3
Standard
 53
0
210
0
220
0
230
1
100
AcDbRadialDimension
 15
144.48
 25
45.86
 35
0
 40
0
  0
DIMENSION
  5
150
100
AcDbEntity
  8
Dimensions2
  6
ByLayer
 62
  256
370
   -1
100
AcDbDimension
  2
*D4
 10
-9.999999999999989
 20
5.021051876504174e-15
 30
0
 11
-12.54999999999999
 21
20
 31
0
 70
   32
 71
    5
  3
Standard
 53
0
210
0
220
0
230
1
100
AcDbAlignedDimension
 13
85
 23
40
 33
0
 14
31.00000000000022
 24
0
 34
0
 50
90
100
AcDbRotatedDimension
  0
MTEXT
  5
151
100
AcDbEntity
  8
Dimensions2
  6
ByLayer
 62
  256
370
   -1
100
AcDbMText
 10
0
 20
80
 30
0
 40
10
 41
159.1666820952859
 71
    1
 72
    1
  1
all dimensions in inches
  7
standard
210
0
220
0
230
1
 50
0
 73
    2
 44
1
  0
DIMENSION
  5
152
100
AcDbEntity
  8
Dimensions
  6
ByLayer
 62
  256
370
   -1
100
AcDbDimension
  2
*D5
 10
119.634
 20
22.912
 30
0
 11
135.3637922589995
 21
27.96086856239384
 31
0
 70
   36
 71
    5
  3
Standard
 53
0
210
0
220
0
230
1
100
AcDbRadialDimension
 15
125.9072730135172
 25
23.89614719319664
 35
0
 40
0
  0
DIMENSION
  5
153
100
AcDbEntity
  8
Dimensions2
  6
ByLayer
 62
  256
370
   -1
100
AcDbDimension
  2
*D6
 10
138
 20
-10
 30
0
 11
153.9
 21
-7.45
 31
0
 70
   32
 71
    5
  3
Standard
 53
0
210
0
220
0
230
1
100
AcDbAlignedDimension
 13
169.8
 23
34.24000000002688
 33
0
 14
138
 24
40
 34
0
100
AcDbRotatedDimension
  0
DIMENSION
  5
154
100
AcDbEntity
  8
Dimensions2
  6
ByLayer
 62
  256
370
   -1
100
AcDbDimension
  2
*D7
 10
110
 20
-20
 30
0
 11
139.9
 21
-17.45
 31
0
 70
   32
 71
    5
  3
Standard
 53
0
210
0
220
0
230
1
100
AcDbAlignedDimension
 13
169.8
 23
12.16000000000963
 33
0
 14
110
 24
40
 34
0
100
AcDbRotatedDimension
  0
DIMENSION
  5
155
100
AcDbEntity
  8
Dimensions2
  6
ByLayer
 62
  256
370
   -1
100
AcDbDimension
  2
*D8
 10
85
 20
-30
 30
0
 11
127.4
 21
-27.45
 31
0
 70
   32
 71
    5
  3
Standard
 53
0
210
0
220
0
230
1
100
AcDbAlignedDimension
 13
169.8
 23
19.52000000001545
 33
0
 14
85
 24
40
 34
0
100
AcDbRotatedDimension
  0
DIMENSION
  5
156
100
AcDbEntity
  8
Dimensions
  6
ByLayer
 62
  256
370
   -1
100
AcDbDimension
  2
*D9
 10
152.654
 20
-10
 30
0
 11
161.227
 21
-7.45
 31
0
 70
   32
 71
    5
  3
Standard
 53
0
210
0
220
0
230
1
100
AcDbAlignedDimension
 13
169.8
 23
19.0400000000151
 33
0
 14
152.654
 24
22.9098
 34
0
100
AcDbRotatedDimension
  0
DIMENSION
  5
157
100
AcDbEntity
  8
Dimensions
  6
ByLayer
 62
  256
370
   -1
100
AcDbDimension
  2
*D10
 10
119.634
 20
-20
 30
0
 11
144.717
 21
-17.45
 31
0
 70
   32
 71
    5
  3
Standard
 53
0
210
0
220
0
230
1
100
AcDbAlignedDimension
 13
169.8
 23
7.884800000018035
 33
0
 14
119.634
 24
22.901
 34
0
100
AcDbRotatedDimension
  0
DIMENSION
  5
158
100
AcDbEntity
  8
Dimensions
  6
ByLayer
 62
  256
370
   -1
100
AcDbDimension
  2
*D11
 10
98.70399999999999
 20
-30
 30
0
 11
134.252
 21
-27.45
 31
0
 70
   32
 71
    5
  3
Standard
 53
0
210
0
220
0
230
1
100
AcDbAlignedDimension
 13
169.8
 23
11.77600000003025
 33
0
 14
98.70399999999999
 24
13.18400000003387
 34
0
100
AcDbRotatedDimension
  0
DIMENSION
  5
159
100
AcDbEntity
  8
Dimensions
  6
ByLayer
 62
  256
370
   -1
100
AcDbDimension
  2
*D12
 10
84.684
 20
-40
 30
0
 11
127.242
 21
-37.45
 31
0
 70
   32
 71
    5
  3
Standard
 53
0
210
0
220
0
230
1
100
AcDbAlignedDimension
 13
169.8
 23
6.144000000015785
 33
0
 14
84.684
 24
13.18400000003387
 34
0
100
AcDbRotatedDimension
  0
DIMENSION
  5
15A
100
AcDbEntity
  8
Dimensions
  6
ByLayer
 62
  256
370
   -1
100
AcDbDimension
  2
*D13
 10
66.827
 20
60
 30
0
 11
118.3135
 21
62.55
 31
0
 70
   32
 71
    5
  3
Standard
 53
0
210
0
220
0
230
1
100
AcDbAlignedDimension
 13
169.8
 23
3.32800000000855
 33
0
 14
66.827
 24
12.67200000003256
 34
0
100
AcDbRotatedDimension
  0
DIMENSION
  5
15B
100
AcDbEntity
  8
Dimensions
  6
ByLayer
 62
  256
370
   -1
100
AcDbDimension
  2
*D14
 10
52.80700000000001
 20
70
 30
0
 11
111.3035
 21
72.55
 31
0
 70
   32
 71
    5
  3
Standard
 53
0
210
0
220
0
230
1
100
AcDbAlignedDimension
 13
169.8
 23
7.680000000019731
 33
0
 14
52.807
 24
12.80000000003289
 34
0
100
AcDbRotatedDimension
  0
DIMENSION
  5
15C
100
AcDbEntity
  8
Dimensions
  6
ByLayer
 62
  256
370
   -1
100
AcDbDimension
  2
*D15
 10
24
 20
80
 30
0
 11
96.90000000000001
 21
82.55
 31
0
 70
   32
 71
    5
  3
Standard
 53
0
210
0
220
0
230
1
100
AcDbAlignedDimension
 13
169.8
 23
8.320000000021375
 33
0
 14
24
 24
10.6240000000273
 34
0
100
AcDbRotatedDimension
  0
DIMENSION
  5
15D
100
AcDbEntity
  8
Dimensions
  6
ByLayer
 62
  256
370
   -1
100
AcDbDimension
  2
*D16
 10
20.00000000000001
 20
90
 30
0
 11
94.90000000000001
 21
92.55
 31
0
 70
   32
 71
    5
  3
Standard
 53
0
210
0
220
0
230
1
100
AcDbAlignedDimension
 13
169.8
 23
11.04000000002837
 33
0
 14
20
 24
13.76000000003535
 34
0
100
AcDbRotatedDimension
  0
DIMENSION
  5
15E
100
AcDbEntity
  8
Dimensions
  6
ByLayer
 62
  256
370
   -1
100
AcDbDimension
  2
*D17
 10
176
 20
22.912
 30
0
 11
173.45
 21
11.456
 31
0
 70
   32
 71
    5
  3
Standard
 53
0
210
0
220
0
230
1
100
AcDbAlignedDimension
 13
160.4800000004123
 23
0
 33
0
 14
152.646
 24
22.912
 34
0
 50
90
100
AcDbRotatedDimension
  0
DIMENSION
  5
15F
100
AcDbEntity
  8
Dimensions
  6
ByLayer
 62
  256
370
   -1
100
AcDbDimension
  2
*D18
 10
110
 20
9.397999999999998
 30
0
 11
107.45
 21
4.699
 31
0
 70
   32
 71
    5
  3
Standard
 53
0
210
0
220
0
230
1
100
AcDbAlignedDimension
 13
92.26240000026854
 23
0
 33
0
 14
92.36480000026883
 24
9.398
 34
0
 50
90
100
AcDbRotatedDimension
  0
DIMENSION
  5
160
100
AcDbEntity
  8
Dimensions
  6
ByLayer
 62
  256
370
   -1
100
AcDbDimension
  2
*D19
 10
80
 20
-3.331039293405339e-16
 30
0
 11
77.45
 21
9.1995
 31
0
 70
   32
 71
    5
  3
Standard
 53
0
210
0
220
0
230
1
100
AcDbAlignedDimension
 13
62.40000000018163
 23
18.399
 33
0
 14
77.28000000022493
 24
0
 34
0
 50
90
100
AcDbRotatedDimension
  0
DIMENSION
  5
161
100
AcDbEntity
  8
Dimensions
  6
ByLayer
 62
  256
370
   -1
100
AcDbDimension
  2
*D20
 10
40
 20
-1.567547902770595e-16
 30
0
 11
37.45
 21
4.698999999999998
 31
0
 70
   32
 71
    5
  3
Standard
 53
0
210
0
220
0
230
1
100
AcDbAlignedDimension
 13
21.76000000006334
 23
9.398
 33
0
 14
38.7200000001127
 24
0
 34
0
 50
90
100
AcDbRotatedDimension
  0
DIMENSION
  5
162
100
AcDbEntity
  8
Dimensions
  6
ByLayer
 62
  256
370
   -1
100
AcDbDimension
  2
*D21
 10
9.999999999999998
 20
14.91
 30
0
 11
7.449999999999998
 21
7.455
 31
0
 70
   32
 71
    5
  3
Standard
 53
0
210
0
220
0
230
1
100
AcDbAlignedDimension
 13
28.16000000008197
 23
0
 33
0
 14
21.60000000006287
 24
14.91
 34
0
 50
90
100
AcDbRotatedDimension
  0
MTEXT
  5
163
100
AcDbEntity
  8
Dimensions
  6
ByLayer
 62
  256
370
   -1
100
AcDbMText
 10
10
 20
-40
 30
0
 40
10
 41
159.1666820952859
 71
    1
 72
    1
  1
all dimensions in inches
  7
standard
210
0
220
0
230
1
 50
0
 73
    2
 44
1
  0
DIMENSION
  5
164
100
AcDbEntity
  8
Dimensions3
  6
ByLayer
 62
  256
370
   -1
100
AcDbDimension
  2
*D22
 10
70.358
 20
-9.999999999999996
 30
0
 11
120.079
 21
-7.449999999999997
 31
0
 70
   32
 71
    5
  3
Standard
 53
0
210
0
220
0
230
1
100
AcDbAlignedDimension
 13
169.8
 23
8.64000000002515
 33
0
 14
70.358
 24
27.52000000008011
 34
0
100
AcDbRotatedDimension
  0
DIMENSION
  5
165
100
AcDbEntity
  8
Dimensions3
  6
ByLayer
 62
  256
370
   -1
100
AcDbDimension
  2
*D23
 10
58.166
 20
-20
 30
0
 11
113.983
 21
-17.45
 31
0
 70
   32
 71
    5
  3
Standard
 53
0
210
0
220
0
230
1
100
AcDbAlignedDimension
 13
169.8
 23
8.000000000023286
 33
0
 14
58.166
 24
28.0000000000815
 34
0
100
AcDbRotatedDimension
  0
DIMENSION
  5
166
100
AcDbEntity
  8
Dimensions3
  6
ByLayer
 62
  256
370
   -1
100
AcDbDimension
  2
*D24
 10
56.13399999999999
 20
-29.99999999999999
 30
0
 11
112.967
 21
-27.44999999999999
 31
0
 70
   32
 71
    5
  3
Standard
 53
0
210
0
220
0
230
1
100
AcDbAlignedDimension
 13
169.8
 23
12.00000000003493
 33
0
 14
56.134
 24
27.52000000008011
 34
0
100
AcDbRotatedDimension
  0
DIMENSION
  5
167
100
AcDbEntity
  8
Dimensions3
  6
ByLayer
 62
  256
370
   -1
100
AcDbDimension
  2
*D25
 10
52.06999999999999
 20
-40
 30
0
 11
110.935
 21
-37.45
 31
0
 70
   32
 71
    5
  3
Standard
 53
0
210
0
220
0
230
1
100
AcDbAlignedDimension
 13
169.8
 23
8.64000000002515
 33
0
 14
52.07
 24
23.68000000006893
 34
0
100
AcDbRotatedDimension
  0
DIMENSION
  5
168
100
AcDbEntity
  8
Dimensions3
  6
ByLayer
 62
  256
370
   -1
100
AcDbDimension
  2
*D26
 10
80
 20
22
 30
0
 11
77.45
 21
11
 31
0
 70
   32
 71
    5
  3
Standard
 53
0
210
0
220
0
230
1
100
AcDbAlignedDimension
 13
67.04000000019514
 23
0
 33
0
 14
67.36000000019607
 24
22
 34
0
 50
90
100
AcDbRotatedDimension
  0
DIMENSION
  5
169
100
AcDbEntity
  8
Dimensions3
  6
ByLayer
 62
  256
370
   -1
100
AcDbDimension
  2
*D27
 10
50
 20
31
 30
0
 11
47.45
 21
15.5
 31
0
 70
   32
 71
    5
  3
Standard
 53
0
210
0
220
0
230
1
100
AcDbAlignedDimension
 13
47.20000000013739
 23
0
 33
0
 14
53.12000000015462
 24
31
 34
0
 50
90
100
AcDbRotatedDimension
  0
DIMENSION
  5
16A
100
AcDbEntity
  8
Dimensions3
  6
ByLayer
 62
  256
370
   -1
100
AcDbDimension
  2
*D28
 10
40
 20
3.526982781697226e-16
 30
0
 11
37.45
 21
18
 31
0
 70
   32
 71
    5
  3
Standard
 53
0
210
0
220
0
230
1
100
AcDbAlignedDimension
 13
65.12000000018955
 23
36
 33
0
 14
42.88000000012481
 24
0
 34
0
 50
90
100
AcDbRotatedDimension
  0
MTEXT
  5
16B
100
AcDbEntity
  8
Dimensions3
  6
ByLayer
 62
  256
370
   -1
100
AcDbMText
 10
0
 20
70
 30
0
 40
10
 41
159.1666820952859
 71
    1
 72
    1
  1
all dimensions in inches
  7
standard
210
0
220
0
230
1
 50
0
 73
    2
 44
1
  0
ENDSEC
  0
SECTION
  2
OBJECTS
  0
DICTIONARY
  5
C
330
0
100
AcDbDictionary
281
    1
  3
ACAD_GROUP
350
D
  0
DICTIONARY
  5
D
330
C
100
AcDbDictionary
281
    1
  0
ENDSEC
  0
EOF
